<?xml version="1.0" encoding="utf-8"?>
<!-- Generator: Adobe Illustrator 19.1.0, SVG Export Plug-In . SVG Version: 6.00 Build 0)  -->
<svg version="1.1" id="Layer_1" xmlns="http://www.w3.org/2000/svg" xmlns:xlink="http://www.w3.org/1999/xlink" x="0px" y="0px"
	 viewBox="0 0 17 21" style="enable-background:new 0 0 17 21;" xml:space="preserve">
<style type="text/css">
	.st0{fill:#FFFFFF;}
	.st1{fill:#4B84FA;}
	.st2{fill:#363636;}
	.st3{fill:none;stroke:#E4E4E4;stroke-miterlimit:10;}
	.st4{fill:#979797;}
	.st5{fill:#67B55A;}
	.st6{fill:none;stroke:#4B84FA;stroke-linecap:round;stroke-linejoin:round;stroke-miterlimit:10;}
	.st7{fill:#F6F6F6;}
	.st8{fill:#F1F1F1;}
	.st9{fill:#DA00F9;}
	.st10{fill:none;}
	.st11{font-family:'MyriadPro-Regular';}
	.st12{font-size:14px;}
</style>
<g>
	
		<image style="overflow:visible;opacity:0.3;" width="661" height="561" xlink:href="AE8608D9B58CBE41.png"  transform="matrix(1 0 0 1 -71.0361 -394.9911)">
	</image>
	<g>
		<path class="st0" d="M560,127c0,1.7-1.3,3-3,3H-37c-1.7,0-3-1.3-3-3v-494c0-1.7,1.3-3,3-3h594c1.7,0,3,1.3,3,3V127z"/>
	</g>
</g>
<g>
	<g>
		<polyline class="st6" points="0.5,19 0.5,0.5 12.5,0.5 12.5,5.5 16.5,5.5 16.5,20.5 5,20.5 		"/>
		<polyline class="st6" points="5.3,9.9 8,13.3 11.6,7.9 		"/>
	</g>
</g>
<rect x="-82.5" y="7.5" class="st10" width="84.9" height="38.4"/>
<text transform="matrix(1 0 0 1 -82.4775 19.1835)"><tspan x="0" y="0" class="st9 st11 st12">Изменился </tspan><tspan x="0" y="16.8" class="st9 st11 st12">весь блок</tspan></text>
</svg>
