<svg version="1.1" id="Layer_1" xmlns="http://www.w3.org/2000/svg" xmlns:xlink="http://www.w3.org/1999/xlink" x="0px" y="0px"
	 viewBox="0 0 20 20" style="enable-background:new 0 0 20 20;" xml:space="preserve">
<style type="text/css">
	.st1{fill:#4B84FA;}
</style>

<g>
			<path class="st1" d="M10,0C4.5,0,0,4.5,0,10c0,5.5,4.5,10,10,10c5.5,0,10-4.5,10-10C20,4.5,15.5,0,10,0z M14.4,7.1
				c-0.1-0.2,0-0.4,0-0.5s0.3-0.3,0.3-0.3c0-0.1,0.2,0,0.2,0c0,0,0.1,0.4,0,0.6c0,0.2,0.1,0.3,0.2,0.3c0.1,0,0.1,0.5,0.1,0.5
				C15.2,7.9,15,8,14.9,8c-0.1,0-0.4,0-0.3-0.1C14.6,7.7,14.5,7.3,14.4,7.1z M10.3,18.9c-2.3,0-4.5-0.9-6.1-2.3L4.6,16l0.3-1.2
				l-0.7-0.5l-0.8-0.3l-0.6-1.3c0,0-0.6-0.5-1.1-0.7c-0.2-0.1-0.3-0.3-0.4-0.6c-0.1-0.5-0.1-1-0.1-1.5c0-0.3,0-0.6,0-0.9
				c0,0,0.1-0.1,0.1-0.1C1.7,8.5,2.9,8,2.9,8s0.4-0.1-0.3-1.2C1.9,5.7,2.9,5,2.9,5l0.5-0.4c0,0-0.2,1.2,0.1,1.3
				c0.3,0.2,1.2-1.3,1.5-1.7C5.2,4,5,3.2,4.6,3.1c-0.1,0-0.1,0-0.2-0.1C6,1.8,7.9,1.1,10,1.1c1.7,0,3.2,0.5,4.5,1.2
				c-1.1,0-3.9,0.7-4.4,0.9C9.7,3.4,9.5,3.8,9.3,4C9.1,4.1,9.4,4.4,9.4,4.4s0.7-0.1,0.8,0.1c0,0.2,0.4,0.3,0.7,0
				C10.9,4.4,10.9,4.1,11,4c0.1-0.1,0.8,0,0.7,0.4C11.6,4.5,11,5,11,5l-0.9,0L9.8,4.6c0,0-0.3,0.1-0.2,0.4c0.1,0.2-0.1,0.4-0.1,0.4
				s-0.9,0.5-1,0.5C8.4,5.9,8.1,6,8,6C7.8,6,8.3,6.3,8.3,6.3s0.2,0.5,0,0.5c-0.1,0-0.8-0.1-0.8,0c0,0.3,0,0.8,0,0.8s0.3,0.1,0.4,0.1
				c0.2-0.1,0.5,0.1,0.7-0.3c0,0,0-0.1,0.1-0.1C8.8,7.1,8.9,6.9,9,6.8c0.1-0.1,0.3,0,0.3,0c0.1,0,0.3-0.2,0.3-0.2l0.6-0.1l0.1,0
				c0,0,0.4,0,0.4,0.1c0,0.1,0.5,0.3,0.4,0.5c-0.1,0.4,0.2,0.5,0.2,0.5s0.2,0,0.4-0.2c0.1-0.2,0.1-0.3,0.1-0.3l0.3,0
				c0,0,0-0.7,0.3-0.7c0.4,0,0.4,0,0.4,0s0.8,0.3,0.8,0.5c0.1,0.2,0.1,0.4-0.1,0.4c-0.2,0-0.6,0-0.6,0s-0.5,0.7-0.3,0.7
				c0.2,0,0.5,0,0.5,0l0,0.5c0,0-0.7,0.1-0.8,0.1c-0.1,0-1.3-0.2-1.3-0.1c0,0-0.4,0.2-0.7,0.1C10.1,8.5,10,8,10,8L8.6,7.9
				c0,0-0.9,0.3-1,0.4C7.6,8.4,6.8,9,6.8,9.3c-0.1,0.3-0.1,2,0.1,2.2c0.2,0.1,1.5,0.8,1.6,0.8C8.6,12.2,9,12.1,9,12.1
				s1.1,2.3,1.1,2.6c0,0.3,0.8,1.5,1,1.6c0.2,0.1,0.8-0.1,0.9-0.2c0.1-0.1,1-1.1,1.2-1.3c0.2-0.2,0.4-0.4,0.4-0.7c0-0.3-0.1-0.9,0-1
				s0.9-0.6,1.1-1.2c0.2-0.6,0.3-0.7,0.2-0.8c0,0-1.2,0.3-1.2,0.3s0.1-0.5,0-0.7c-0.1-0.2-0.4-0.9-0.5-1.1c-0.1-0.2,0.3-0.1,0.4,0.2
				c0.2,0.7,0.5,1.2,0.5,1.2s1.8-0.8,1.9-0.9C16.1,9.8,15,9.5,15,9.5l-0.3-0.7c0,0,1.3,0.4,1.5,0.6c0.2,0.2,0.7,0.5,0.7,0.9
				c0.1,0.3,0,0.8,0.2,1c0.2,0.2,0.7,0.2,0.7,0.2l1.6-1.5c0,0,0,0,0,0C19.5,14.9,15.2,18.9,10.3,18.9z"/>
			<path class="st1" d="M8.6,4.8c0,0,0.2,0.1,0.3,0.1c0,0,0.4,0.1,0.5,0c0.1-0.1,0.4-0.7,0.4-0.7L9.5,4c0,0-0.2-0.4-0.2-0.5
				c0-0.1-0.1-0.3-0.1-0.3s-0.5,0-0.5,0.3v0.4c0,0-0.1,0.2-0.1,0.2c0,0-0.3,0.3-0.3,0.4C8.3,4.6,8.6,4.8,8.6,4.8z"/>
			<path class="st1" d="M15.2,13.9c0,0,0,0.4-0.2,0.5c-0.2,0.1-0.3,0.3-0.3,0.5c0,0.1,0,0.3,0,0.4c0,0.1,0.1,0.2,0.3,0.2
				c0.1,0,0.3-0.3,0.3-0.4s0.1-0.3,0.2-0.4c0.1-0.1,0.1-0.3,0.1-0.4C15.4,14.2,15.5,13.8,15.2,13.9z"/>
		</g>
</svg>
