<svg version="1.1" id="Layer_1" xmlns="http://www.w3.org/2000/svg" xmlns:xlink="http://www.w3.org/1999/xlink" x="0px" y="0px"
	 viewBox="0 0 19.8 14" style="enable-background:new 0 0 19.8 14;" xml:space="preserve">
<style type="text/css">
	.st1{fill:#4B84FA;}
</style>

<g>
			<path class="st1" d="M4.8,8.9c0.1-0.3,0-0.6-0.2-0.7C4.3,8.1,4,8.2,3.8,8.5C3.4,9.3,3.1,9.4,2.6,9.7C2.2,9.8,1.7,10,1,10.5
				c-1.4,1-1.3,2.3-1,2.9c0.1,0.2,0.3,0.3,0.5,0.3c0.1,0,0.1,0,0.2,0C1,13.5,1.1,13.2,1,12.9c0,0-0.4-0.8,0.7-1.6
				c0.5-0.4,1-0.6,1.3-0.7C3.6,10.3,4.2,10.1,4.8,8.9z"/>
			<path class="st1" d="M12.7,10.5C12,10,11.4,9.8,10.9,9.6c-0.7-0.2-1.1-0.4-1.5-1.1C9.2,8.2,8.9,8.1,8.7,8.2
				C8.4,8.4,8.3,8.7,8.4,8.9c0.6,1.1,1.3,1.4,2.1,1.7c0.5,0.2,1,0.3,1.5,0.7c0.7,0.5,0.7,1.6,0.6,1.6H2.9c-0.3,0-0.5,0.2-0.5,0.5
				S2.6,14,2.9,14H13c0.2,0,0.4-0.1,0.5-0.2C13.8,13,14.1,11.5,12.7,10.5z"/>
			<path class="st1" d="M6.7,8.6c2.3,0,3.4-2.9,3.4-4.8C10.1,1.5,8.7,0,6.7,0S3.3,1.5,3.3,3.8C3.3,5.7,4.4,8.6,6.7,8.6z M6.7,1
				c1.7,0,2.4,1.4,2.4,2.7c0,1.5-0.8,3.8-2.4,3.8S4.4,5.3,4.4,3.8C4.4,2.4,5,1,6.7,1z"/>
		</g>
<g>
			<path class="st1" d="M14.1,7.5c1.9,0,2.8-2.4,2.8-3.9c0-1.8-1.1-3.1-2.8-3.1s-2.8,1.2-2.8,3.1C11.3,5.1,12.2,7.5,14.1,7.5z
				 M14.1,1.3c1.4,0,1.9,1.1,1.9,2.2c0,1.3-0.7,3.1-1.9,3.1s-1.9-1.8-1.9-3.1C12.2,2.5,12.7,1.3,14.1,1.3z"/>
			<path class="st1" d="M19,9.1c-0.6-0.4-1.1-0.6-1.5-0.7c-0.6-0.2-0.9-0.3-1.2-0.9c-0.1-0.2-0.4-0.3-0.6-0.2
				c-0.2,0.1-0.3,0.4-0.2,0.6c0.5,0.9,1.1,1.1,1.7,1.4c0.4,0.1,0.8,0.2,1.3,0.5c0.6,0.4,0.5,1.3,0.5,1.3h-4.5c0.1,0,0.1,1,0,1h4.8
				c0.2,0,0.3-0.1,0.4-0.2C19.9,11.2,20.1,9.9,19,9.1z"/>
			<path class="st1" d="M11.1,8.6c0.2,0.1,0.4,0.1,0.6,0.2c0.3-0.2,0.5-0.5,0.8-1c0.1-0.2,0-0.5-0.2-0.6c-0.2-0.1-0.5,0-0.6,0.2
				c-0.3,0.7-0.6,0.8-1.1,1c0,0,0,0-0.1,0C10.8,8.5,10.9,8.5,11.1,8.6z"/>
		</g>

</svg>
