<svg id="Isolation_Mode" xmlns="http://www.w3.org/2000/svg" viewBox="-212.3 385.2 132.6 20.7"><style>.st0{fill:#fff}</style><path class="st0" d="M-176.7 400.4c.6-.3 1.2-.4 1.7-.8 1.3-1.1 2.5-2.4 3.8-3.6.3-.2.6-.4 1-.6 0 .4.1.8 0 1.2-.4 1.1-.8 2.1-1.2 3.2.1.1.2.1.3.2.3-.1.7-.1 1-.2 1.6-.8 3.1-1.6 3.9-3.3.5-1.1.6-1 1.7-.8-.7 1.5-2 2.7-2 4.4l.3.3c.9-.6 1.8-1.2 2.6-1.9.7-.6 1.3-1.5 2-2.2.2-.2.4-.2.7-.4.1.2.3.5.3.7-.2.7-.5 1.5-.7 2.2-.1.4-.1.8-.2 1.2 1.7 0 3.5-1.6 3.9-3.1.2-.7.9-1.4 1.5-2 .1-.1.6.2 1.1.3-.6.5-1 .8-1.3 1.1-.7.6-.7 1.2-.1 1.8.5.6 1.1 1.2 1.6 1.9 1.5-.7 2.9-1.8 4-3.1.7-.7 1.4-1.4 2.2-1.9.4-.2 1.1-.1 1.5.2.2.1.1.9-.1 1.3-.6 1.5-2 2.2-3.6 2.1-.1.2-.2.4-.3.7-.3 1 .2 1.7 1.2 1.2 1.6-.7 3.1-1.6 4.6-2.5.3-.1.5-.4.9-.5-.1.3-.2.7-.4.8-1.5 1-2.9 2.1-4.5 2.8-1.8.8-2.7.1-2.7-2.1-1.1.9-2.2 1.6-3.2 2.5-1 .8-2.2.9-3-.1.8-.3 1.6-.7 2.7-1.1-.6-.8-1.2-1.4-1.6-1.9-1.2.8-2.3 1.7-3.5 2.3-1.3.7-2 .1-1.8-1.4 0-.2 0-.4.1-.8-.6.5-1.1.9-1.7 1.3-.4.3-.8.5-1.2.8-1.4.7-2 .3-2.3-1.4-.8.5-1.6 1-2.4 1.3-.6.2-1.5.4-1.9.1-.4-.3-.2-1.2-.3-1.8v-.5c-.6.6-1.1 1.1-1.7 1.5-.6.4-1.1.8-1.8 1.2-1.5.7-2.1.4-2.1-1.1-1.3.5-2.5 1.1-3.8 1.5-2.2.7-2.8.1-2.7-2-1 .5-2 1.2-3 1.6-1 .4-2.1.9-3-.1-.8-.9-.2-1.9.1-2.8.5-1.3 1.4-2.4 2.7-2.9.5-.2 1.1 0 1.7 0-.1.5 0 1.1-.2 1.6-.7 1.4-1.9 2-3.5 1.8-.1.2-.2.4-.3.7-.3 1 .1 1.6 1.1 1.3 2.1-.5 3.9-1.7 5.4-3.3.7-.8 1.5-1.5 2.3-2.1.6-.4 1.2-.1 1.2.8-1.9.4-3.1 1.7-3.7 3.4-.5 1.2 0 1.7 1.2 1.4 2.3-.7 4.4-1.5 6-3.5.5-.6 1.1-1.1 1.8-1.6.3-.2.8-.3 1.2-.3.2 0 .4.3.5.4-.1.2-.3.3-.4.5-1.1.9-2.2 1.7-3.2 2.6-.4.4-.6.9-.9 1.4.3-.2.4 0 .5.1zm-12.1-3.3c1.3.5 2.5-.5 2.5-2-.9.8-1.7 1.4-2.5 2zm38.5.1c.1.1.1.2.2.3 1.2.2 2.4-.9 2.2-2.3-.9.7-1.6 1.3-2.4 2zm-52.7-8.8c-1.8.3-3.6.6-5.5 1-.4.1-.9.5-1.1-.2-.2-.7.5-.8.9-.9 1.9-.2 3.8-.5 5.7-.6.7 0 1-.3 1.4-.8.4-.6.9-1.1 1.5-1.7.7 1.1-.2 1.6-.5 2.2 1.7.1 3.3.2 5 .5.7.1 1.5.4 2.2.7.9.5 1.1 1.4.2 2-1 .8-2.1 1.4-3.2 2.1-.6.3-1.2.6-2 .9.9.3 1.6.4 2.3.8 1.3.7 2.7 1.3 3.8 2.2 1.2.9 1.2 1.9 0 2.8-1.5 1-3.2 2-4.9 2.6-2.3.8-4.7 1.2-7 1.7-.3.1-.7.1-1 0-.5-.2-.9-.5-.4-1 .4-.5 1-.8 1.6-1.2.1.1.1.2.2.3-.2.3-.4.5-.7 1 .8-.1 1.4-.1 2-.2 2.6-.4 5.2-1.1 7.6-2.3.7-.4 1.4-.8 2-1.3.9-.8.9-1.3-.1-2-1.7-1.4-3.8-2.1-5.9-2.4-1.6-.2-3.2-.3-4.8-.4-.4 0-.8-.1-1.4-.2-1.6 2.7-3.3 5.4-5 8.2-.5.9-.7 2-1.1 3-.1.3-.6.4-.9.7-.1-.4-.3-.9-.2-1.2.4-1 .8-1.9 1.3-2.8 2.5-4.1 5.1-8.2 7.7-12.3.2-.3.3-.5.5-.8-.1-.2-.1-.3-.2-.4zm-1.7 4.7h1.6c1.1 0 2.4.3 3.4 0 1.7-.5 3.3-1.4 4.9-2.2.4-.2.7-.7 1-1.1-.5-.3-.9-.7-1.4-.8-1.9-.2-3.9-.3-5.8-.5-.2 0-.5.1-.6.2-1 1.4-2 2.8-3.1 4.4zm108.2 8c.2-.5.3-1 .5-1.5-.7.3-1.4.7-2.1 1-1.7.6-2.3 0-1.9-1.7 0-.2 0-.3.1-.7-.6.6-1.2 1.1-1.7 1.5-.6.4-1.2.9-1.9 1.2-1.5.7-2 .3-2-1.1-1.5.5-2.9 1.2-4.5 1.6-1.6.5-2.4-.3-2-2 .5-1.9 1.5-3.5 3.3-4.4.8-.4 1.1-.2 1.3.8-1.9.4-3 1.7-3.7 3.4-.5 1.2 0 1.7 1.2 1.4 2.3-.7 4.4-1.5 6-3.5.5-.6 1.1-1.1 1.7-1.5.3-.2.7-.3 1.1-.4.2 0 .5.2.7.4-.2.2-.3.4-.5.6-1 .8-2.1 1.6-3.1 2.5-.4.4-.6.9-.9 1.4.1.1.2.2.2.3.6-.2 1.2-.4 1.7-.8 1.3-1.1 2.5-2.4 3.8-3.6.3-.3.7-.4 1-.6 0 .4 0 .9-.1 1.3-.3 1-.8 2.1-1.1 3.1.1.1.2.1.3.2.3-.1.6 0 .9-.2 1.7-.8 3.4-1.7 4.1-3.7 0-.1.1-.2.1-.2.3-.2.5-.4.8-.6 0 .3.1.7 0 .9-.2.5-.5 1-.9 1.8 1.2-.7 2.1-1.4 3.1-1.8.8-.3 1.6-.5 2.5-.5.2 0 .7.5.7.7 0 .6-.5.3-.9.3-.6-.1-1.3-.1-1.8.2-1.9.8-3.6 2-4.8 3.8-.3.3-.5.7-1.2.4zm-38.1-5.1c-1.3 1.2-2.6 2.4-2.8 4.4.5-.2.8-.4 1.1-.6 1.4-1.3 2.7-2.6 4-4 .5-.5.8-.7 1.5-.3-.4.5-.8 1-1.1 1.5-.2.3-.5.6-.6 1-.1.5-.3 1.2-.1 1.6.2.3 1 .4 1.5.2 1.6-.6 2.9-1.6 3.5-3.2.3-.8.7-1.6-.3-2.2l.3-.6c.3.3.9.5 1 .8.1.7.1 1.5-.1 2.2-.7 1.9-2.2 3.2-4 3.9-1.5.6-2.6 0-2.8-1.7-.7.5-1.3 1.1-2 1.6-.7.4-1.5 1.1-2.2.4-.3-.4-.2-1.4 0-2 .4-1 1-1.9 1.6-2.8.5-1 .7-.9 1.5-.2zm9.7 2.4c-.1.2-.2.4-.3.7-.3 1 .2 1.6 1.1 1.2 1.6-.7 3.1-1.6 4.6-2.4.3-.2.6-.5 1.1-.6-.1.3-.2.6-.4.8-1.5 1.4-3.1 2.6-5.2 3-1.4.3-2.3-.6-2-2 .4-1.7 1.3-3.1 2.7-4.1.2-.1.5-.3.7-.3.5 0 1.1-.1 1.3.2.2.2.2.9 0 1.3-.6 1.6-1.9 2.3-3.6 2.2zm.3-1.1c1.4.4 2.7-.7 2.6-2.1-.9.7-1.6 1.3-2.6 2.1zm38.5 1.1c-.1.2-.2.4-.2.6-.4 1.1.1 1.7 1.2 1.3 1.2-.4 2.3-1 3.4-1.7.7-.4 1.2-.9 2-1.3-.1.3-.2.6-.4.8-1.4 1.4-3 2.5-5 2.9-1.6.4-2.5-.5-2.1-2.1.4-1.6 1.2-2.8 2.5-3.8.2-.2.5-.4.8-.4.5 0 1.1-.1 1.5.2.2.1.1.9-.1 1.3-.6 1.6-1.9 2.3-3.6 2.2zm3.1-3.1c-1.2.5-2 1-2.5 2.1 1.2.2 2.3-.7 2.5-2.1z"/></svg>