<svg id="Layer_1" xmlns="http://www.w3.org/2000/svg" viewBox="-765.6 595.9 18.3 71"><style>.st0{fill:#fff;stroke:#ccc;stroke-miterlimit:10}.st1{fill:#ccc}.st2{fill:#fff;stroke:#666;stroke-miterlimit:10}.st3{fill:#666}</style><path class="st0" d="M-748 601.4s-3.9 5-8.5 5c-4.7 0-8.5-5-8.5-5s3.9-5 8.5-5c4.7.1 8.5 5 8.5 5z"/><ellipse class="st1" cx="-754.6" cy="601.3" rx="2.9" ry="2.8"/><path class="st0" d="M-765 625.4s3.9-5 8.5-5c4.7 0 8.5 5 8.5 5s-3.9 5-8.5 5-8.5-5-8.5-5z"/><ellipse class="st1" cx="-758.3" cy="625.6" rx="2.9" ry="2.8"/><path class="st2" d="M-748 637.4s-3.9 5-8.5 5c-4.7 0-8.5-5-8.5-5s3.9-5 8.5-5c4.7 0 8.5 5 8.5 5z"/><ellipse class="st3" cx="-758.4" cy="637.2" rx="2.9" ry="2.8"/><path class="st2" d="M-765 613.4s3.9-5 8.5-5c4.7 0 8.5 5 8.5 5s-3.9 5-8.5 5-8.5-5-8.5-5z"/><ellipse class="st3" cx="-754.6" cy="613.2" rx="2.9" ry="2.8"/><path class="st2" d="M-748 661.4s-3.9 5-8.5 5c-4.7 0-8.5-5-8.5-5s3.9-5 8.5-5c4.7 0 8.5 5 8.5 5z"/><ellipse class="st3" cx="-756.5" cy="661.2" rx="2.9" ry="2.8"/><path class="st0" d="M-748 649.4s-3.9 5-8.5 5c-4.7 0-8.5-5-8.5-5s3.9-5 8.5-5c4.7.1 8.5 5 8.5 5z"/><ellipse class="st1" cx="-756.5" cy="649.3" rx="2.9" ry="2.8"/></svg>