<svg id="Isolation_Mode" xmlns="http://www.w3.org/2000/svg" viewBox="0 0 220.1 30"><style>.st0{fill:#0086ff}</style><path class="st0" d="M185.9 12.1c0 3.4-2.7 5.6-6.1 5.6h-3.3c-.2 0-.3 0-.3.3v5.7c0 .4-.3.8-.8.8h-.1c-.4 0-.8-.3-.8-.8V7.4c0-.4.3-.8.8-.8h4.5c3.4.1 6.1 2.1 6.1 5.5zm-1.5 0c0-2.5-2-3.9-4.6-3.9h-3.3c-.2 0-.3.1-.3.3v7.3c0 .2 0 .3.3.3h3.4c2.4 0 4.5-1.5 4.5-4zm35.7 3.5c0 5.1-3.9 9.2-8.9 9.2-5.1 0-9.2-4.1-9.2-9.2s4.1-9.2 9.2-9.2 8.9 4.1 8.9 9.2zm-1.5 0c0-4.2-3.2-7.7-7.4-7.7s-7.6 3.5-7.6 7.7 3.4 7.7 7.6 7.7c4.2 0 7.4-3.5 7.4-7.7zM90.4 11.8c0 3.5-2.8 5.8-6.3 5.8h-3.4c-.2 0-.3 0-.3.3v5.9c0 .4-.4.8-.8.8h-.1c-.4 0-.8-.4-.8-.8V7c0-.4.4-.8.8-.8h4.6c3.5 0 6.3 2.1 6.3 5.6zm-1.6 0c0-2.6-2.1-4-4.7-4h-3.4c-.2 0-.3.1-.3.3v7.5c0 .2 0 .3.3.3h3.5c2.5 0 4.6-1.5 4.6-4.1zm14.9 11.8c0 .5-.4.9-.8.9h-9c-.4 0-.8-.4-.8-.8V7c0-.4.3-.8.8-.8h8.5c.4 0 .8.4.8.8s-.4.8-.8.8H95c-.3 0-.3.1-.3.3V14c0 .3.1.3.3.3h6.5c.4 0 .8.4.8.8v.1c0 .4-.4.8-.8.8h-6.4c-.3 0-.3 0-.3.3v6.4c0 .2.1.3.3.3h7.9c.4-.1.7.2.7.6zM120 7v16.7c0 .3-.2.6-.5.7-.4.2-.8.1-1-.3 0 0-9-13.1-9.4-13.6-.4-.6-.6-.5-.6.3v12.9c0 .4-.4.8-.8.8h-.1c-.4 0-.8-.4-.8-.8V7c0-.3.2-.6.5-.7.4-.2.8-.1 1 .3 0 0 9 13.1 9.5 13.8.4.7.6.4.6-.2V7.1c0-.4.4-.8.8-.8h.1c.4-.1.7.2.7.7zm14.2 12.2c0 3.2-2.2 5.6-5.4 5.6-2.1 0-3.9-1-4.9-2.6-.7-1.2.7-2.1 1.6-1 .8 1.1 1.7 2 3.3 2 2.4 0 3.9-1.7 3.9-4.1 0-2.2-1.5-3.3-4.2-3.9-2.7-.6-4.4-1.8-4.4-4.8 0-2.6 1.9-4.7 4.7-4.7 1.8 0 3.3.8 4.2 2.3.6 1-.8 1.7-1.4.9-.9-1-1.6-1.7-2.8-1.7-1.9 0-3.2 1.5-3.2 3.2 0 1.5.9 2.7 3.1 3.3 2.9.9 5.4 2 5.5 5.5zm13.9 4.4c0 .5-.4.9-.8.9h-9c-.4 0-.8-.4-.8-.8V7c0-.4.3-.8.8-.8h8.5c.4 0 .8.4.8.8s-.4.8-.8.8h-7.4c-.3 0-.3.1-.3.3V14c0 .3.1.3.3.3h6.5c.4 0 .8.4.8.8v.1c0 .4-.4.8-.8.8h-6.4c-.3 0-.3 0-.3.3v6.4c0 .2.1.3.3.3h7.9c.4-.1.7.2.7.6zm17.8-.2c.2.4 0 .9-.4 1-.4.2-.9 0-1-.4 0 0-1.8-4.4-1.9-4.6-.1-.2-.3-.3-.6-.3h-7.5c-.3 0-.5.1-.6.4-.1.3-1.9 4.5-1.9 4.5-.2.4-.6.6-1 .4h-.1c-.4-.2-.6-.6-.4-1l7-16.7c.1-.3.5-.5.8-.5.3 0 .6.2.8.5l6.8 16.7zm-10.8-6h6.2c.4 0 .4-.1.3-.4-.1-.3-2.4-5.9-3.1-7.5-.2-.4-.3-.4-.5 0-.8 1.7-3.1 7.4-3.1 7.6-.2.2-.1.3.2.3z"/><circle class="st0" cx="170.3" cy="23.6" r="1"/><path class="st0" d="M57.8 19.3c-.6-1.3-.8-2.6-.8-4 0-5.3 4.3-9.6 9.6-9.6s9.6 4.3 9.6 9.6-4.3 9.6-9.6 9.6c-1.6 0-3.2-.4-4.6-1.2-.4-.2-.6-.7-.3-1.1.2-.4.7-.6 1.1-.3 1.2.6 2.5 1 3.8 1 4.4 0 7.9-3.5 7.9-7.9S71 7.5 66.6 7.5s-7.9 3.5-7.9 7.9c0 1.1.2 2.2.7 3.3m136.2-2c2.5-.5 4-2.7 4-5.2 0-2.9-2-4.8-5.1-4.8h-4.9c-.2 0-.5 0-.7.2-.2.2-.2.5-.3 1.1v15.7c.1 0 .1.1.2.4.1.2.3.3.6.3s.5-.1.6-.3c.1-.2.2-.4.2-.7l-.1-6.6h3.6l4.3 7.1c.1.2.4.6.8.6.1 0 .3 0 .4-.1.2-.1.4-.4.4-.6 0-.2-.1-.4-.2-.7l-3.8-6.4zm2.4-5.2c0 2.2-1.4 3.8-3.8 3.8h-4l.1-7.1h4c2.4 0 3.7 1.2 3.7 3.3zm-165.9 3c-1.7 0-3.2-1.4-4-2.1-.7.7-2.3 2.1-4 2.1-1.7 0-3.2-1.4-4-2.1-.7.7-2.3 2.1-4 2.1-1.7 0-3.2-1.4-4-2.1-.7.7-2.3 2.1-4 2.1-1.7 0-3.2-1.4-4-2.1-.7.7-2.3 2.1-4 2.1.1 0-.1-.3-.1-.5s.2-.5.5-.5c1.7 0 3.6-2.2 3.6-2.2.1-.1.2-.2.4-.2.1 0 .3.1.4.2 0 0 1.9 2.2 3.6 2.2 1.4 0 3.1-1.7 3.6-2.3.1-.1.2-.3.4-.3.1 0 .3.2.4.3 0 0 1.9 2.3 3.6 2.3 1.4 0 3.1-1.7 3.6-2.3.1-.1.2-.3.4-.3.1 0 .3.2.4.3 0 0 1.9 2.3 3.6 2.3 1.4 0 3.1-1.7 3.6-2.3.1-.1.2-.3.4-.3.1 0 .3.2.4.3 0 0 1.9 2.3 3.6 2.3 1.7 0 3.6-2.2 3.6-2.2.2-.2.5-.2.7 0 .2.2.2.5.1.7-.5 0-2.6 2.5-4.8 2.5zm6.9 14c-1.7 0-3.2-1.4-4-2.1-.7.7-2.3 2.1-4 2.1-1.7 0-3.2-1.4-4-2.1-.7.7-2.3 2.1-4 2.1-.3 0-.5-.2-.5-.5s.2-.5.5-.5c1.4 0 3.1-1.8 3.6-2.4.1-.1.2-.3.4-.3.1 0 .3.2.4.3 0 0 1.9 2.3 3.6 2.3 1.7 0 3.6-2.1 3.6-2.2.2-.2.6-.2.8 0 0 0 1.9 2.2 3.6 2.2 1.7 0 3.6-2.2 3.6-2.2.2-.2.5-.2.7-.1.2.2.2.5.1.7-.2.3-2.3 2.7-4.4 2.7zM18 3.6c-1.7 0-3.2-1.4-4-2.1-.7.7-2.3 2.1-4 2.1-1.7 0-3.2-1.4-4-2.1-.7.7-2.3 2.1-4 2.1-.3 0-.5-.2-.5-.5s.2-.5.5-.5C3.4 2.6 5.1.9 5.6.3c.3-.1.4-.3.6-.3.1 0 .3.2.4.3 0 0 1.9 2.3 3.6 2.3S13.8.4 13.8.4c.2-.2.6-.2.8 0 0 0 1.9 2.2 3.6 2.2 1.7 0 3.6-2.2 3.6-2.2.2-.2.5-.2.7-.1.2.2.2.5.1.7-.3.1-2.4 2.6-4.6 2.6z"/><path class="st0" d="M40.1 14.3c-2.2 0-4.2-2.5-4.3-2.6-.2-.2-.1-.5.1-.7.2-.2.5-.1.7.1 0 0 1.9 2.2 3.6 2.2.3 0 .5.2.5.5-.1.3-.3.5-.6.5zm-25.4 9.5c1.2.8 2.2 1.1 3.6 1.3 5.4.9 10.5-2.7 11.4-8.1S26.9 6.6 21.5 5.7 11 8.4 10.1 13.8c-.3 1.6-.1 3.3.4 4.9.2.4.6.7 1.1.5.4-.2.7-.6.5-1.1-.4-1.3-.6-2.7-.3-4 .7-4.4 5-7.4 9.4-6.7s7.4 5 6.7 9.4c-.7 4.4-5 7.4-9.4 6.7-1.2-.2-2.2-.6-3.2-1.3l-1.2-.8L8 28.6s-.2.7.3 1.2c.5.4 1.2.2 1.2.2l5.2-6.2z"/></svg>