<svg id="Layer_1" xmlns="http://www.w3.org/2000/svg" viewBox="-155.8 379.1 233.5 36.3"><style>.st0{fill:#0086ff}</style><path class="st0" d="M37.5 395.4c0 3.4-2.7 5.6-6.1 5.6H28c-.2 0-.3 0-.3.3v5.7c0 .4-.3.8-.8.8h-.1c-.4 0-.8-.3-.8-.8v-16.2c0-.4.3-.8.8-.8h4.5c3.4 0 6.2 2 6.2 5.4zm-1.6 0c0-2.5-2-3.9-4.6-3.9H28c-.2 0-.3.1-.3.3v7.3c0 .2 0 .3.3.3h3.4c2.5 0 4.5-1.4 4.5-4zm35.8 3.5c0 5.1-3.9 9.2-9 9.2s-9.2-4.1-9.2-9.2 4.1-9.2 9.2-9.2 9 4.1 9 9.2zm-1.6 0c0-4.2-3.2-7.7-7.4-7.7s-7.6 3.5-7.6 7.7 3.4 7.7 7.6 7.7c4.3 0 7.4-3.5 7.4-7.7zm-128.2-3.8c0 3.5-2.8 5.8-6.3 5.8h-3.4c-.2 0-.3.1-.3.3v5.9c0 .4-.4.8-.8.8h-.1c-.4 0-.8-.4-.8-.8v-16.8c0-.4.4-.8.8-.8h4.6c3.5 0 6.3 2.1 6.3 5.6zm-1.6 0c0-2.6-2.1-4-4.7-4h-3.4c-.2 0-.3.1-.3.3v7.5c0 .2 0 .3.3.3h3.5c2.5 0 4.6-1.5 4.6-4.1zm14.9 11.8c0 .5-.4.9-.8.9h-9c-.4 0-.8-.4-.8-.8v-16.7c0-.4.3-.8.8-.8h8.6c.4 0 .8.4.8.8v.1c0 .4-.4.8-.8.8h-7.4c-.3 0-.3.1-.3.3v5.9c0 .3.1.3.3.3h6.5c.4 0 .8.4.8.8v.1c0 .4-.4.8-.8.8h-6.4c-.3 0-.3.1-.3.3v6.2c0 .2.1.3.3.3h7.9c.3 0 .6.3.6.7zm16.4-16.6V407c0 .3-.2.6-.5.7-.4.2-.8.1-1-.3 0 0-9-13.1-9.4-13.6-.4-.6-.6-.5-.6.3V407c0 .4-.4.8-.8.8h-.1c-.4 0-.8-.4-.8-.8v-16.7c0-.3.2-.6.5-.7.4-.2.8-.1 1 .3 0 0 9 13.1 9.5 13.8.4.7.6.4.6-.2v-13.1c0-.4.4-.8.8-.8h.1c.3-.1.7.2.7.7zm14.1 12.3c0 3.2-2.2 5.6-5.4 5.6-2.1 0-3.9-1-4.9-2.6-.7-1.2.7-2.1 1.6-1 .8 1.1 1.7 2 3.3 2 2.4 0 3.9-1.7 3.9-4.1 0-2.2-1.5-3.3-4.2-3.9s-4.4-1.8-4.4-4.8c0-2.6 1.9-4.7 4.7-4.7 1.8 0 3.3.8 4.2 2.3.6 1-.8 1.7-1.4.9-.9-1-1.6-1.7-2.8-1.7-1.9 0-3.2 1.5-3.2 3.2 0 1.5.9 2.7 3.1 3.3 3 .8 5.4 1.9 5.5 5.5zm13.9 4.3c0 .5-.4.9-.8.9h-9c-.4 0-.8-.4-.8-.8v-16.7c0-.4.3-.8.8-.8h8.6c.4 0 .8.4.8.8v.1c0 .4-.4.8-.8.8H-9c-.3 0-.3.1-.3.3v5.9c0 .3.1.3.3.3h6.5c.4 0 .8.4.8.8v.1c0 .4-.4.8-.8.8H-9c-.3 0-.3.1-.3.3v6.2c0 .2.1.3.3.3h7.9c.4 0 .7.3.7.7zm17.8-.2c.2.4 0 .9-.4 1-.4.2-.9 0-1-.4 0 0-1.8-4.4-1.9-4.6-.1-.2-.3-.3-.6-.3H6c-.3 0-.5.1-.6.4-.1.3-1.9 4.5-1.9 4.5-.2.4-.6.6-1 .4h-.1c-.4-.2-.6-.6-.4-1L9 390c.1-.3.5-.5.8-.5s.6.2.8.5l6.8 16.7zm-10.8-6h6.2c.4 0 .4-.1.3-.4-.1-.3-2.4-5.9-3.1-7.6-.2-.4-.3-.4-.5 0-.8 1.7-3.1 7.5-3.1 7.6-.2.3-.1.4.2.4z"/><circle class="st0" cx="21.8" cy="406.9" r="1"/><path class="st0" d="M-90.7 402.6c-.6-1.2-.8-2.6-.8-3.9 0-5.3 4.3-9.6 9.6-9.6s9.6 4.3 9.6 9.6-4.3 9.6-9.6 9.6c-1.6 0-3.2-.4-4.6-1.2-.4-.2-.6-.7-.3-1.1.2-.4.7-.6 1.1-.3 1.2.6 2.5 1 3.8 1 4.4 0 7.9-3.5 7.9-7.9s-3.5-7.9-7.9-7.9-7.9 3.5-7.9 7.9c0 1.1.2 2.2.7 3.3M47.1 400c2.5-.5 4-2.7 4-5.2 0-2.9-2-4.8-5.1-4.8h-4.9c-.2 0-.5 0-.7.2-.2.2-.2.5-.3 1.1V407c.1 0 .1.1.2.4.1.2.4.3.6.3s.5-.1.6-.3c.1-.2.2-.4.2-.7l-.1-6.6h3.6l4.4 7.1c.1.2.4.6.8.6.1 0 .3 0 .4-.1.2-.1.4-.4.4-.6s-.1-.4-.2-.7l-3.9-6.4zm2.4-5.2c0 2.2-1.4 3.8-3.8 3.8h-4l.1-7.1h4c2.4 0 3.7 1.2 3.7 3.3zm-165.3 4.8c-2 0-4-1.7-4.8-2.6-.9.9-2.8 2.6-4.8 2.6s-4-1.7-4.8-2.6c-.9.9-2.8 2.6-4.8 2.6s-3.9-1.7-4.8-2.6c-.9.9-2.8 2.6-4.8 2.6s-3.9-1.7-4.8-2.6c-.9.9-2.8 2.6-4.8 2.6-.3 0-.6-.3-.6-.6s.3-.6.6-.6c2.1 0 4.3-2.7 4.3-2.7.1-.1.3-.2.5-.2s.3.1.5.2c0 0 2.3 2.7 4.3 2.7 1.7 0 3.7-2.1 4.3-2.8.1-.1.3-.4.5-.4s.3.2.5.4c0 0 2.3 2.8 4.3 2.8 1.7 0 3.7-2 4.3-2.8.1-.1.3-.3.5-.3s.3.2.5.4c0 0 2.3 2.8 4.3 2.8 1.7 0 3.7-2 4.3-2.8.1-.1.3-.3.5-.3s.3.2.5.4c0 0 2.3 2.8 4.4 2.8 2.1 0 4.3-2.6 4.4-2.6.2-.3.6-.3.8-.1.3.2.3.6.1.9-.2-.2-2.7 2.8-5.4 2.8zm6.2 11.4c-.7-.6-1.2-1.2-1.2-1.2-.2-.3-.7-.3-.9 0 0 0-2.3 2.6-4.3 2.6s-4.3-2.8-4.3-2.8c-.1-.1-.3-.4-.5-.4s-.3.3-.5.4c-.6.7-2.6 2.9-4.3 2.9-.3 0-.6.3-.6.6s.3.6.6.6c2 0 3.9-1.7 4.8-2.6.9.9 2.8 2.6 4.8 2.6s3.9-1.7 4.8-2.6c.2.2.5.5.9.8.2-.1.5-.1.7-.2-.1-.2 0-.5 0-.7zm-25.3-27.6c-2 0-3.9-1.7-4.8-2.6-.9.9-2.8 2.6-4.8 2.6s-3.9-1.7-4.8-2.6c-.9.9-2.8 2.6-4.8 2.6-.3 0-.6-.3-.6-.6s.3-.6.6-.6c1.7 0 3.7-2.1 4.3-2.8.1-.1.3-.3.5-.3s.3.2.5.3c0 0 2.3 2.8 4.3 2.8s4.3-2.6 4.3-2.7c.2-.3.7-.3.9 0 0 0 2.3 2.7 4.3 2.7 2.1 0 4.3-2.7 4.3-2.7.2-.3.6-.3.8-.1.3.2.3.6.1.8 0 .2-2.5 3.2-5.1 3.2z"/><path class="st0" d="M-106 399.4c-2.7 0-5.2-3-5.3-3.1-.2-.3-.2-.6.1-.8.3-.2.6-.2.8.1 0 0 2.3 2.7 4.3 2.7.3 0 .6.3.6.6 0 .2-.2.5-.5.5zm-30 8.5c1.4 1 2.6 1.4 4.3 1.6 6.5 1.1 12.7-3.3 13.8-9.8s-3.2-12.7-9.7-13.8c-6.5-1.1-12.7 3.3-13.8 9.8-.3 2-.2 4 .5 5.9.2.5.8.8 1.3.6.5-.2.8-.8.6-1.3-.5-1.6-.7-3.3-.4-4.9.9-5.4 6-9 11.4-8.1 5.4.9 9 6 8.1 11.4-.9 5.4-6 9-11.4 8.1-1.4-.2-2.7-.8-3.9-1.5l-1.4-1-7.5 8.8s-.2.9.4 1.4 1.4.2 1.4.2l6.3-7.4zm30.1 5.8c-2.6.3-5.4-2.6-5.6-2.7-.2-.2-.2-.6 0-.9.2-.2.6-.2.8 0 0 0 2.5 2.5 4.6 2.3.3 0 .6.2.7.6s-.1.7-.5.7z"/></svg>