<svg id="Layer_1" xmlns="http://www.w3.org/2000/svg" xmlns:xlink="http://www.w3.org/1999/xlink" viewBox="0 0 719 640.7"><style>.st0{fill:#fff}.st1{fill:#4b84fa}.st2{fill:none}.st3{fill:#363636}.st4{font-family:&amp;apos;Verdana-Bold&amp;apos;}.st5{font-size:18px}.st6{font-family:&amp;apos;Verdana&amp;apos;}.st7{font-size:14px}.st8{font-family:&amp;apos;Verdana-Italic&amp;apos;}.st9{font-family:&amp;apos;TrebuchetMS-Bold&amp;apos;}.st10{font-size:30px}.st11{fill:none;stroke:#e4e4e4;stroke-miterlimit:10}.st12{fill:#979797}.st13{fill:#67b55a}.st14{fill:none;stroke:#4b84fa;stroke-linecap:round;stroke-linejoin:round;stroke-miterlimit:10}.st15{fill:#f6f6f6}.st16{font-size:10px}.st17{fill:#f1f1f1}.st18{font-family:&amp;apos;Circe-Regular&amp;apos;}.st19{font-size:16px}.st20{fill:#da00f9}</style><image width="660" height="500" xlink:href="165F1752EFC8FBE0.png" transform="translate(29 51.21)" overflow="visible" opacity=".3"/><path class="st0" d="M659 512.2c0 1.7-1.3 3-3 3H62c-1.7 0-3-1.3-3-3v-433c0-1.7 1.3-3 3-3h594c1.7 0 3 1.3 3 3v433z"/><path class="st1" d="M659 136.2H59V79.3c0-1.7 1.3-3.1 3-3.1h594c1.7 0 3 1.4 3 3.1v56.9z"/><path class="st0" d="M280.4 103.6c0 3.4-2.7 5.6-6.1 5.6H271c-.2 0 .1-.4.1-.1v5.7c0 .4-.7.4-1.2.4h-.1c-.4 0-.8 0-.8-.4V98.5c0-.4.4-.3.8-.3h4.5c3.3 0 6.1 2 6.1 5.4zm-1.6-.5c0-2.5-2-3.9-4.6-3.9h-3.3c-.2 0 .1.2.1.4v7.3c0 .2-.3.3-.1.3h3.4c2.5 0 4.5-1.5 4.5-4.1zM314.6 106.7c0 5.1-3.9 9.2-9 9.2s-9.2-4.1-9.2-9.2 4.1-9.2 9.2-9.2 9 4.1 9 9.2zm-1.6 0c0-4.2-3.2-7.7-7.4-7.7s-7.6 3.5-7.6 7.7 3.4 7.7 7.6 7.7c4.2 0 7.4-3.5 7.4-7.7zM184.8 102.6c0 3.5-2.8 5.6-6.3 5.6H175c-.2 0 0 .5 0 .7v5.9c0 .4-.6.4-1.1.4h-.1c-.4 0-.9 0-.9-.4V98c0-.4.4-.8.9-.8h4.6c3.5 0 6.4 1.9 6.4 5.4zm-1.6.5c0-2.6-2.1-3.9-4.7-3.9H175c-.2 0 0-.3 0-.1v7.6c0 .2-.2.5 0 .5h3.5c2.6 0 4.7-1.5 4.7-4.1zM198 114.7c0 .5-.2.5-.7.5h-9c-.4 0-.3 0-.3-.4V98c0-.4-.1-.8.3-.8h8.6c.4 0 1.1.4 1.1.8v.1c0 .4-.7 1.1-1.1 1.1h-7.4c-.3 0-.5-.3-.5-.1v5.9c0 .3.2.1.4.1h6.5c.4 0 1.1.5 1.1 1v.1c0 .4-.7 1-1.1 1h-6.4c-.3 0-.5-.2-.5.1v6.4c0 .2.2.6.4.6h7.9c.5-.1.7 0 .7.4zM214 98v16.7c0 .3 0 .6-.3.7-.4.2-.6.1-.9-.3 0 0-8.9-13.1-9.3-13.6-.4-.6-.5-.5-.5.3v12.9c0 .4-.4.4-.8.4h-.1c-.4 0-1.1 0-1.1-.4V98.1c0-.3.3-.6.6-.7.4-.2.9-.1 1.1.3 0 0 9.2 13.1 9.6 13.8.4.7.7.4.7-.2V98.2c0-.4.2-.8.6-.8h.1c.4-.2.3.2.3.6zM228.6 110.3c0 3.2-2.2 5.6-5.4 5.6-2.1 0-3.9-1-4.9-2.6-.7-1.2.7-2.1 1.6-1 .8 1.1 1.7 2 3.3 2 2.4 0 3.9-1.7 3.9-4.1 0-2.2-1.5-3.3-4.2-3.9-2.7-.6-4.4-1.8-4.4-4.8 0-2.6 1.9-4.7 4.7-4.7 1.8 0 3.3.8 4.2 2.3.6 1-.8 1.7-1.4.9-.9-1-1.6-1.7-2.8-1.7-1.9 0-3.2 1.5-3.2 3.2 0 1.5.9 2.7 3.1 3.3 2.9.9 5.4 2 5.5 5.5zM243 114.7c0 .5-.8.5-1.3.5h-9c-.4 0-.7 0-.7-.4V98c0-.4.3-.8.7-.8h8.6c.4 0 .7.4.7.8v.1c0 .4-.3 1.1-.7 1.1h-7.4c-.3 0 .1-.3.1-.1v5.9c0 .3-.4.1-.2.1h6.5c.4 0 .7.5.7 1v.1c0 .4-.3 1-.7 1h-6.4c-.3 0 .1-.2.1.1v6.4c0 .2-.4.6-.2.6h7.9c.5-.1 1.3 0 1.3.4zM260.3 114.5c.2.4 0 .9-.4 1-.4.2-.9 0-1-.4 0 0-1.8-4.4-1.9-4.6-.1-.2-.3-.3-.6-.3h-7.5c-.3 0-.5.1-.6.4s-1.9 4.5-1.9 4.5c-.2.4-.6.6-1 .4h-.1c-.4-.2-.6-.6-.4-1l7-16.7c.1-.3.5-.5.8-.5.3 0 .6.2.8.5l6.8 16.7zm-10.8-6.3h6.2c.4 0 .4.1.3-.2-.1-.3-2.4-5.8-3.1-7.5-.2-.4-.3-.4-.5 0-.8 1.7-3.1 7.3-3.1 7.5-.2.3-.1.2.2.2z"/><circle class="st0" cx="264.7" cy="114.7" r="1"/><path class="st0" d="M152.2 110.4c-.6-1.2-.8-2.6-.8-3.9 0-5.3 4.3-9.6 9.6-9.6s9.6 4.3 9.6 9.6-4.3 9.6-9.6 9.6c-1.6 0-3.2-.4-4.6-1.2-.4-.2-.6-.7-.3-1.1.2-.4.7-.6 1.1-.3 1.2.6 2.5 1 3.8 1 4.4 0 7.9-3.5 7.9-7.9s-3.5-7.9-7.9-7.9-7.9 3.5-7.9 7.9c0 1.1.2 2.2.7 3.3M290 107.8c2.5-.5 4-2.5 4-5 0-2.9-2-4.6-5.1-4.6H284c-.2 0-.5-.2-.7 0-.2.2-.3.3-.3.9v15.7s.1.1.3.4c.1.2.4.3.6.3.3 0 .5-.1.6-.3.1-.2.2-.2.2-.5l-.1-6.5h3.6l4.4 6.9c.1.2.4.5.8.5.1 0 .3-.1.4-.2.2-.1.4-.4.4-.7 0-.2-.1-.4-.2-.7l-4-6.2zm2.4-5.3c0 2.2-1.4 3.7-3.8 3.7h-4l.1-7h4c2.4 0 3.7 1.1 3.7 3.3zM121.1 104.4c-2 0-4-1.7-4.8-2.6-.9.9-2.8 2.6-4.8 2.6s-4-1.7-4.8-2.6c-.9.9-2.8 2.6-4.8 2.6s-3.9-1.7-4.8-2.6c-.9.9-2.8 2.6-4.8 2.6s-3.9-1.7-4.8-2.6c-.9.9-2.8 2.6-4.8 2.6-.3 0-.6-.3-.6-.6s.3-.6.6-.6c2.1 0 4.3-2.7 4.3-2.7.1-.1.3-.2.5-.2s.3.1.5.2c0 0 2.3 2.7 4.3 2.7 1.7 0 3.7-2.1 4.3-2.8.1-.1.3-.4.5-.4s.3.2.5.4c0 0 2.3 2.8 4.3 2.8 1.7 0 3.7-2 4.3-2.8.1-.1.3-.3.5-.3s.3.2.5.4c0 0 2.3 2.8 4.3 2.8 1.7 0 3.7-2 4.3-2.8.1-.1.3-.3.5-.3s.3.2.5.4c0 0 2.3 2.8 4.4 2.8 2.1 0 4.3-2.6 4.4-2.6.2-.3.6-.3.8-.1.3.2.3.6.1.9-.2-.2-2.7 2.8-5.4 2.8zM129.4 121.5c-2 0-3.9-1.7-4.8-2.6-.9.9-2.8 2.6-4.8 2.6s-3.9-1.7-4.8-2.6c-.9.9-2.8 2.6-4.8 2.6-.3 0-.6-.3-.6-.6s.3-.6.6-.6c1.7 0 3.7-2.1 4.3-2.9.1-.1.3-.4.5-.4s.3.3.5.4c0 0 2.3 2.8 4.3 2.8s4.3-2.6 4.3-2.6c.2-.3.7-.2.9 0 0 0 2.3 2.7 4.3 2.7 2.1 0 4.3-2.7 4.3-2.7.2-.3.6-.3.8-.1.3.2.3.6.1.8.1.2-2.4 3.2-5.1 3.2zM104 91.1c-2 0-3.9-1.7-4.8-2.6-.9.9-2.8 2.6-4.8 2.6s-3.9-1.7-4.8-2.6c-.9.9-2.8 2.6-4.8 2.6-.3 0-.6-.3-.6-.6s.3-.6.6-.6c1.7 0 3.7-2.1 4.3-2.8.1-.1.3-.3.5-.3s.3.2.5.3c0 0 2.3 2.8 4.3 2.8s4.3-2.6 4.3-2.7c.2-.3.7-.3.9 0 0 0 2.3 2.7 4.3 2.7 2.1 0 4.3-2.7 4.3-2.7.2-.3.6-.3.8-.1.3.2.3.6.1.8 0 .3-2.5 3.2-5.1 3.2z"/><path class="st0" d="M130.8 104.2c-2.7 0-5.2-3-5.3-3.1-.2-.3-.2-.6.1-.8.3-.2.6-.2.8.1 0 0 2.3 2.7 4.3 2.7.3 0 .6.3.6.6.1.2-.1.5-.5.5zM99.9 115.7c1.4 1 2.6 1.4 4.3 1.6 6.5 1.1 12.7-3.3 13.8-9.8 1.1-6.5-3.3-12.7-9.8-13.8-6.5-1.1-12.7 3.3-13.8 9.8-.3 2-.2 4 .5 5.9.2.5.8.8 1.3.6.5-.2.8-.8.6-1.3-.5-1.6-.7-3.3-.4-4.9.9-5.4 6-9 11.4-8.1 5.4.9 9 6 8.1 11.4-.9 5.4-6 9-11.4 8.1-1.4-.2-2.7-.8-3.9-1.5l-1.4-1-7.5 8.8s-.2.9.4 1.4 1.4.2 1.4.2l6.4-7.4z"/><path class="st2" d="M93 161h497.1v177.3H93z"/><text transform="translate(92.957 174.636)"><tspan x="0" y="0" class="st3 st4 st5">Welcome on board Username!</tspan><tspan x="0" y="30" class="st3 st6 st7">We just created account for you. </tspan><tspan x="0" y="50" class="st3 st6 st7">Here are your login credentials:</tspan><tspan x="0" y="80" class="st3 st6 st7">Email: </tspan><tspan x="49.8" y="80" class="st3 st4 st7">seatransliner@vsl.com</tspan><tspan x="0" y="110" class="st3 st6 st7">Password: </tspan><tspan x="77.4" y="110" class="st3 st4 st7">jszCXeeg</tspan><tspan x="148.9" y="110" class="st3 st6 st7"> (automatically generated)</tspan><tspan x="0" y="140" class="st3 st6 st7">We recommend you to change password in your profile/security page. </tspan><tspan x="0" y="160" class="st3 st6 st7">And please check if all information inputted correctly.</tspan></text><text transform="translate(92.957 413.53)"><tspan x="0" y="0" class="st3 st8 st7">Wish you qiuck fixing</tspan><tspan x="0" y="25" class="st3 st8 st7">Team OpenSea</tspan></text><text transform="translate(60.999 45.455)" class="st9 st10">1.1 Регистрация аккаунта админом</text><g><path class="st15" d="M659 459.2H59v54.4c0 1.7 1.2 2.6 2.8 2.6h593.8c1.7 0 3.4-.9 3.4-2.6v-54.4z"/><path class="st2" d="M92.8 472.9h550V504h-550z"/><text transform="translate(92.79 480.483)"><tspan x="0" y="0" class="st12 st6 st16">If you have any questions or suggestions, please email us at </tspan><tspan x="309.4" y="0" class="st12 st6 st16" text-decoration="underline">support@opensea.pro</tspan><tspan x="419.6" y="0" class="st12 st6 st16">.</tspan><tspan x="0" y="21" class="st12 st6 st16">We&amp;apos;d love to hear you.</tspan></text></g><g><path class="st1" d="M274 354.2c0-1.7-1.3-3-3-3H96c-1.7 0-3 1.3-3 3v29c0 1.7 1.3 3 3 3h175c1.7 0 3-1.3 3-3v-29z"/><text transform="translate(117.222 373.832)" class="st17 st18 st19">Go to OpenSea.pro</text></g></svg>