<svg id="Layer_1" xmlns="http://www.w3.org/2000/svg" viewBox="0 0 20 20"><style>.st1{fill:#4b84fa}</style><path class="st1" d="M10 0C4.5 0 0 4.5 0 10s4.5 10 10 10 10-4.5 10-10S15.5 0 10 0zm4.4 7.1c-.1-.2 0-.4 0-.5s.3-.3.3-.3c0-.1.2 0 .2 0s.1.4 0 .6c0 .2.1.3.2.3s.1.5.1.5c0 .2-.2.3-.3.3-.1 0-.4 0-.3-.1 0-.2-.1-.6-.2-.8zm-4.1 11.8c-2.3 0-4.5-.9-6.1-2.3l.4-.6.3-1.2-.7-.5-.8-.3-.6-1.3s-.6-.5-1.1-.7c-.2-.1-.3-.3-.4-.6-.1-.5-.1-1-.1-1.5V9l.1-.1c.4-.4 1.6-.9 1.6-.9s.4-.1-.3-1.2c-.7-1.1.3-1.8.3-1.8l.5-.4s-.2 1.2.1 1.3c.3.2 1.2-1.3 1.5-1.7.2-.2 0-1-.4-1.1-.1 0-.1 0-.2-.1C6 1.8 7.9 1.1 10 1.1c1.7 0 3.2.5 4.5 1.2-1.1 0-3.9.7-4.4.9-.4.2-.6.6-.8.8-.2.1.1.4.1.4s.7-.1.8.1c0 .2.4.3.7 0 0-.1 0-.4.1-.5.1-.1.8 0 .7.4-.1.1-.7.6-.7.6h-.9l-.3-.4s-.3.1-.2.4c.1.2-.1.4-.1.4s-.9.5-1 .5c-.1 0-.4.1-.5.1-.2 0 .3.3.3.3s.2.5 0 .5c-.1 0-.8-.1-.8 0v.8s.3.1.4.1c.2-.1.5.1.7-.3 0 0 0-.1.1-.1.1-.2.2-.4.3-.5.1-.1.3 0 .3 0 .1 0 .3-.2.3-.2l.6-.1h.1s.4 0 .4.1.5.3.4.5c-.1.4.2.5.2.5s.2 0 .4-.2c.1-.2.1-.3.1-.3h.3s0-.7.3-.7h.4s.8.3.8.5c.1.2.1.4-.1.4h-.6s-.5.7-.3.7h.5v.5s-.7.1-.8.1c-.1 0-1.3-.2-1.3-.1 0 0-.4.2-.7.1-.2-.1-.3-.6-.3-.6l-1.4-.1s-.9.3-1 .4c0 .1-.8.7-.8 1-.1.3-.1 2 .1 2.2.2.1 1.5.8 1.6.8.1-.1.5-.2.5-.2s1.1 2.3 1.1 2.6c0 .3.8 1.5 1 1.6.2.1.8-.1.9-.2.1-.1 1-1.1 1.2-1.3.2-.2.4-.4.4-.7 0-.3-.1-.9 0-1s.9-.6 1.1-1.2c.2-.6.3-.7.2-.8l-1.2.3s.1-.5 0-.7c-.1-.2-.4-.9-.5-1.1-.1-.2.3-.1.4.2.2.7.5 1.2.5 1.2s1.8-.8 1.9-.9c.1-.3-1-.6-1-.6l-.3-.7s1.3.4 1.5.6c.2.2.7.5.7.9.1.3 0 .8.2 1 .2.2.7.2.7.2l1.6-1.5c.1 4.9-4.2 8.9-9.1 8.9z"/><path class="st1" d="M8.6 4.8s.2.1.3.1c0 0 .4.1.5 0 .1-.1.4-.7.4-.7L9.5 4s-.2-.4-.2-.5c0-.1-.1-.3-.1-.3s-.5 0-.5.3v.4l-.1.2s-.3.3-.3.4c0 .1.3.3.3.3zM15.2 13.9s0 .4-.2.5c-.2.1-.3.3-.3.5v.4c0 .1.1.2.3.2.1 0 .3-.3.3-.4s.1-.3.2-.4c.1-.1.1-.3.1-.4-.2-.1-.1-.5-.4-.4z"/></svg>