<svg id="Layer_1" xmlns="http://www.w3.org/2000/svg" xmlns:xlink="http://www.w3.org/1999/xlink" viewBox="0 0 19.8 14"><style>.st0{fill:#fff}.st1{fill:#4b84fa}.st2{fill:#363636}.st3{fill:none;stroke:#e4e4e4;stroke-miterlimit:10}.st4{fill:#979797}.st5{fill:#67b55a}.st6{fill:none;stroke:#4b84fa;stroke-linecap:round;stroke-linejoin:round;stroke-miterlimit:10}.st7{fill:#f6f6f6}.st8{fill:#f1f1f1}.st9{fill:#da00f9}</style><image width="661" height="561" xlink:href="4979EBEEA880C879.png" transform="translate(-69.555 -466.027)" overflow="visible" opacity=".3"/><path class="st0" d="M561.4 56c0 1.7-1.3 3-3 3h-594c-1.7 0-3-1.3-3-3v-494c0-1.7 1.3-3 3-3h594c1.7 0 3 1.3 3 3V56z"/><g><path class="st1" d="M4.8 8.9c.1-.3 0-.6-.2-.7-.3-.1-.6 0-.8.3-.4.8-.7.9-1.2 1.2-.4.1-.9.3-1.6.8-1.4 1-1.3 2.3-1 2.9.1.2.3.3.5.3h.2c.3-.2.4-.5.3-.8 0 0-.4-.8.7-1.6.5-.4 1-.6 1.3-.7.6-.3 1.2-.5 1.8-1.7zM12.7 10.5c-.7-.5-1.3-.7-1.8-.9-.7-.2-1.1-.4-1.5-1.1-.2-.3-.5-.4-.7-.3-.3.2-.4.5-.3.7.6 1.1 1.3 1.4 2.1 1.7.5.2 1 .3 1.5.7.7.5.7 1.6.6 1.6H2.9c-.3 0-.5.2-.5.5s.2.6.5.6H13c.2 0 .4-.1.5-.2.3-.8.6-2.3-.8-3.3zM6.7 8.6c2.3 0 3.4-2.9 3.4-4.8C10.1 1.5 8.7 0 6.7 0S3.3 1.5 3.3 3.8c0 1.9 1.1 4.8 3.4 4.8zm0-7.6c1.7 0 2.4 1.4 2.4 2.7 0 1.5-.8 3.8-2.4 3.8S4.4 5.3 4.4 3.8C4.4 2.4 5 1 6.7 1z"/><g><path class="st1" d="M14.1 7.5c1.9 0 2.8-2.4 2.8-3.9 0-1.8-1.1-3.1-2.8-3.1s-2.8 1.2-2.8 3.1c0 1.5.9 3.9 2.8 3.9zm0-6.2c1.4 0 1.9 1.1 1.9 2.2 0 1.3-.7 3.1-1.9 3.1s-1.9-1.8-1.9-3.1c0-1 .5-2.2 1.9-2.2zM19 9.1c-.6-.4-1.1-.6-1.5-.7-.6-.2-.9-.3-1.2-.9-.1-.2-.4-.3-.6-.2-.2.1-.3.4-.2.6.5.9 1.1 1.1 1.7 1.4.4.1.8.2 1.3.5.6.4.5 1.3.5 1.3h-4.5c.1 0 .1 1 0 1h4.8c.2 0 .3-.1.4-.2.2-.7.4-2-.7-2.8zM11.1 8.6c.2.1.4.1.6.2.3-.2.5-.5.8-1 .1-.2 0-.5-.2-.6-.2-.1-.5 0-.6.2-.3.7-.6.8-1.1 1h-.1c.3.1.4.1.6.2z"/></g></g></svg>