<svg version="1.1" id="Layer_1" xmlns="http://www.w3.org/2000/svg" xmlns:xlink="http://www.w3.org/1999/xlink" x="0px" y="0px"
	 viewBox="0 0 47.2 27.9" style="enable-background:new 0 0 47.2 27.9;" xml:space="preserve">
<g>
	<path d="M13.4,27.9C7,27.9,1.5,23.5,0,17.2c-0.1-0.5,0.2-1.1,0.8-1.2c0.5-0.1,1.1,0.2,1.2,0.8
		c1.2,5.4,5.9,9.1,11.5,9.1c3.9,0,7.5-1.9,9.7-5.1L15.5,15c-0.2-0.2-0.4-0.5-0.4-0.8s0.1-0.6,0.3-0.8l7.3-6.5
		c-2.2-2.8-5.6-4.5-9.2-4.5c-5.4,0-10,3.6-11.4,8.8c-0.1,0.5-0.7,0.9-1.2,0.7c-0.5-0.1-0.9-0.7-0.7-1.2c1.6-6.1,7-10.3,13.3-10.3
		c4.6,0,8.8,2.3,11.4,6.1c0.3,0.4,0.2,1-0.2,1.3l-7,6.3l7.4,5.7c0.4,0.3,0.5,0.9,0.2,1.3C22.8,25.3,18.3,27.9,13.4,27.9z"/>
	<path d="M41.2,20.7C41.2,20.7,41.2,20.7,41.2,20.7c-0.5,0-0.8-0.3-1-0.7L35.6,3.9l-4.7,10.3c-0.2,0.4-0.5,0.6-0.9,0.6
		h-4.9c-0.6,0-1-0.4-1-1s0.4-1,1-1h4.2l5.5-12.2C35,0.2,35.4,0,35.9,0c0.4,0,0.8,0.3,0.9,0.7l4.7,16.1l3.8-8.3
		c0.2-0.5,0.8-0.7,1.3-0.5c0.5,0.2,0.7,0.8,0.5,1.3l-4.9,10.7C42,20.5,41.6,20.7,41.2,20.7z"/>
</g>
</svg>
