<?xml version="1.0" encoding="utf-8"?>
<svg version="1.1" viewBox="-277 386.4 35.5 20">
<path class="st0" d="M-242.5,386.4h-9h-9c-0.6,0-1.1,0.4-1.1,1v9v1.4l-4-5.1c-0.4-0.5-1.1-0.5-1.5,0l-9.7,12
	c-0.2,0.3-0.3,0.7-0.1,1.1c0.2,0.3,0.5,0.6,0.9,0.6h16.6h2.8h5.2h9c0.6,0,0.9-0.4,0.9-1v-9v-9C-241.6,386.9-241.9,386.4-242.5,386.4
	z M-243.6,395.4h-7v-7h7V395.4z M-252.6,395.4h-7v-7h7V395.4z M-259.6,397.4h7v7h-3.6l-3.4-4.1V397.4z M-259.5,404.4h-4.8l1-1.4
	c0.3-0.4,0.2-1.1-0.2-1.4c-0.4-0.3-1.1-0.2-1.4,0.2l-1.9,2.5c0,0,0,0,0,0.1h-2l2.8-3.6c0.3-0.4,0.3-1.1-0.2-1.4
	c-0.4-0.3-1.1-0.3-1.4,0.2l-3.8,4.8h-2.6l7.6-9.5l7.6,9.5C-258.8,404.4-259.5,404.4-259.5,404.4z M-243.6,404.4h-7v-7h7V404.4z"/>
</svg>
