<svg version="1.1" id="Layer_1" xmlns="http://www.w3.org/2000/svg" xmlns:xlink="http://www.w3.org/1999/xlink" x="0px" y="0px"
	 viewBox="0 0 47.6 26.1" style="enable-background:new 0 0 47.6 26.1;" xml:space="preserve">
<g>
	<path  d="M34.5,25.9c-0.6,0-1-0.4-1-1V1c0-0.6,0.4-1,1-1s1,0.4,1,1v23.9C35.5,25.4,35,25.9,34.5,25.9z"/>
	<path  d="M46.6,14.1H26.2c-0.6,0-1-0.4-1-1s0.4-1,1-1h20.3c0.6,0,1,0.4,1,1S47.1,14.1,46.6,14.1z"/>
	<path  d="M46.6,26.1H22.4c-0.6,0-1-0.4-1-1s0.4-1,1-1h23.1V2H23.4v6.9c0,0.6-0.4,1-1,1s-1-0.4-1-1V1c0-0.6,0.4-1,1-1
		h24.1c0.6,0,1,0.4,1,1v24.1C47.6,25.7,47.1,26.1,46.6,26.1z"/>
	<path  d="M30.7,26.1h-26c-0.4,0-0.7-0.2-0.9-0.6c-0.2-0.3-0.1-0.8,0.1-1.1L16.8,8.8c0.2-0.2,0.5-0.4,0.8-0.4
		c0,0,0,0,0,0c0.3,0,0.6,0.1,0.8,0.4l13.2,15.7c0.3,0.3,0.3,0.7,0.1,1.1S31.1,26.1,30.7,26.1z M6.8,24.1h21.8L17.6,11L6.8,24.1z"/>
	<path  d="M11.4,26.1c-0.2,0-0.4-0.1-0.6-0.2c-0.4-0.3-0.5-1-0.1-1.4l6-7.5c0.3-0.4,1-0.5,1.4-0.1c0.4,0.3,0.5,1,0.1,1.4
		l-6,7.5C11.9,26,11.6,26.1,11.4,26.1z"/>
	<path  d="M17.6,26.1c-0.2,0-0.4-0.1-0.6-0.2c-0.4-0.3-0.5-1-0.1-1.4l3.6-4.4c0.3-0.4,1-0.5,1.4-0.1
		c0.4,0.3,0.5,1,0.1,1.4l-3.6,4.4C18.1,26,17.9,26.1,17.6,26.1z"/>
	<path  d="M10,12.2H1c-0.6,0-1-0.4-1-1s0.4-1,1-1h9c0.6,0,1,0.4,1,1S10.6,12.2,10,12.2z"/>
	<path  d="M5.5,16.7c-0.6,0-1-0.4-1-1v-9c0-0.6,0.4-1,1-1s1,0.4,1,1v9C6.5,16.3,6.1,16.7,5.5,16.7z"/>
</g>
</svg>
