<svg version="1.1" id="Layer_1" xmlns="http://www.w3.org/2000/svg" xmlns:xlink="http://www.w3.org/1999/xlink" x="0px" y="0px"
	 viewBox="0 0 26.3 29.4" style="enable-background:new 0 0 26.3 29.4;" xml:space="preserve">
	<path d="M1,29.4c-0.2,0-0.5-0.1-0.7-0.2c-0.4-0.4-0.5-1-0.1-1.4l6.9-8c0.4-0.4,1-0.5,1.4-0.1c1.6,1.4,3.5,2,6,2
		c5.4,0,9.8-4.4,9.8-9.8S19.9,2,14.5,2s-9.8,4.4-9.8,9.8c0,1,0.1,1.9,0.4,2.8c0.2,0.5-0.1,1.1-0.7,1.2c-0.5,0.2-1.1-0.1-1.2-0.7
		c-0.3-1.1-0.5-2.3-0.5-3.4C2.7,5.3,8,0,14.5,0C21,0,26.3,5.3,26.3,11.8S21,23.6,14.5,23.6C12,23.6,9.9,23,8,21.7L1.8,29
		C1.6,29.3,1.3,29.4,1,29.4z"/>
</svg>
