<svg version="1.1" xmlns="http://www.w3.org/2000/svg" xmlns:xlink="http://www.w3.org/1999/xlink" x="0px" y="0px"
	 viewBox="0 0 17.403 9.6"  xml:space="preserve">

		<path style="fill:#808080;" d="M17.165,4.341L11.987,0.19c-0.316-0.253-0.828-0.253-1.144,0c-0.316,0.253-0.453,0.941-0.137,1.194
			l3.202,2.407L0.819,3.808C0.372,3.808,0,4.442,0,4.8c0,0.358,0.337,1.01,0.784,1.01l13.224-0.017l-3.253,2.524
			c-0.316,0.253-0.229,0.84,0.087,1.093c0.158,0.127,0.365,0.19,0.572,0.19c0.207,0,0.414-0.063,0.572-0.19l5.179-4.151
			C17.482,5.005,17.482,4.595,17.165,4.341z"/>

</svg>
