<svg version="1.1" id="Layer_1" xmlns="http://www.w3.org/2000/svg" xmlns:xlink="http://www.w3.org/1999/xlink" x="0px" y="0px"
	 viewBox="0 0 41.6 30.2" style="enable-background:new 0 0 41.6 30.2;" xml:space="preserve">
<path d="M40.6,9.9h-8.9V1.1c0-0.6-0.5-1.1-1.1-1.1H1.1C0.5,0,0,0.5,0,1.1v24.2c0,0.4,0.2,0.8,0.6,0.9
	c0.2,0.1,0.3,0.1,0.5,0.1c0.2,0,0.4-0.1,0.6-0.2l8.1-5.7h9v4.1c0,0.6,0.5,1.1,1.1,1.1h16.4l3.6,4.3c0.2,0.2,0.5,0.4,0.8,0.4
	c0.1,0,0.2,0,0.4-0.1c0.4-0.2,0.7-0.5,0.7-1V11C41.7,10.4,41.2,9.9,40.6,9.9z"/>
</svg>
