<svg version="1.1" xmlns="http://www.w3.org/2000/svg" xmlns:xlink="http://www.w3.org/1999/xlink" x="0px" y="0px"
	 viewBox="0 0 22.3 22.3" xml:space="preserve">

	<path d="M8.6,6.1c0.6-0.1,0.9,0.5,1.2,1c0.3,0.4,0.6,0.9,0.5,1.5c-0.1,0.3-0.4,0.5-0.6,0.7C9.5,9.4,9.2,9.6,9.1,9.9
		c-0.1,0.5,0.2,0.9,0.3,1.2c0.4,0.6,0.9,1.2,1.5,1.7c0.3,0.2,0.7,0.6,1.1,0.5c0.6-0.1,0.8-0.9,1.4-1c0.6-0.1,1.1,0.4,1.4,0.7
		c0.3,0.3,0.9,0.7,0.9,1.2c0,0.3-0.3,0.5-0.5,0.6c-0.2,0.2-0.4,0.4-0.6,0.5c-0.5,0.3-1.1,0.5-1.8,0.5c-0.7,0-1.2-0.3-1.7-0.5
		c-1-0.5-1.7-1.2-2.4-2C8,12.3,7.3,11.4,7,10.4C6.5,9.1,6.8,7.8,7.5,6.9C7.6,6.8,7.8,6.7,8,6.5C8.2,6.4,8.3,6.2,8.6,6.1z"/>
	<path d="M11.2,22.3C5,22.3,0,17.3,0,11.2S5,0,11.2,0s11.2,5,11.2,11.2S17.3,22.3,11.2,22.3z M11.2,2
		C6.1,2,2,6.1,2,11.2s4.1,9.2,9.2,9.2s9.2-4.1,9.2-9.2S16.2,2,11.2,2z"/>

</svg>
