<svg version="1.1" id="Layer_1" xmlns="http://www.w3.org/2000/svg" xmlns:xlink="http://www.w3.org/1999/xlink" x="0px" y="0px"
	 viewBox="0 0 25.4 32.2" style="enable-background:new 0 0 25.4 32.2;" xml:space="preserve">
<style type="text/css">
	.st0{fill:#0086FF;}
	.st7{fill:#FFFFFF;}
</style>

	<path class="st0" d="M23.8,31.9H1.6c-0.6,0-1-0.4-1-1V2.2c0-0.6,0.4-1,1-1h17.5c0.6,0,1,0.4,1,1v4.2h3.7c0.6,0,1,0.4,1,1v23.6
		C24.8,31.5,24.3,31.9,23.8,31.9z"/>

			<circle class="st7" cx="12.7" cy="18" r="7.5"/>
			<path class="st0" d="M12.7,26.5c-4.7,0-8.5-3.8-8.5-8.5S8,9.5,12.7,9.5s8.5,3.8,8.5,8.5S17.4,26.5,12.7,26.5z M12.7,11.5
				c-3.6,0-6.5,2.9-6.5,6.5s2.9,6.5,6.5,6.5s6.5-2.9,6.5-6.5S16.3,11.5,12.7,11.5z"/>

			<polyline class="st7" points="9.5,17.6 12.5,20.3 16.4,15.4 			"/>
			<path class="st0" d="M12.5,21.3c-0.2,0-0.5-0.1-0.7-0.3l-3-2.7l1.3-1.5l2.2,2l3.2-4.1l1.6,1.2l-3.9,4.9
				C13.1,21.1,12.9,21.3,12.5,21.3C12.6,21.3,12.5,21.3,12.5,21.3z"/>

</svg>
