<svg version="1.1" id="Layer_1" xmlns="http://www.w3.org/2000/svg" xmlns:xlink="http://www.w3.org/1999/xlink" x="0px" y="0px"
	 viewBox="0 0 25.4 32.2" style="enable-background:new 0 0 25.4 32.2;" xml:space="preserve">
<style type="text/css">
	.st0{fill:#0086FF;}
	.st7{fill:#FFFFFF;}
</style>

	<path class="st0" d="M23.8,31.9H1.6c-0.6,0-1-0.4-1-1V2.2c0-0.6,0.4-1,1-1h17.5c0.6,0,1,0.4,1,1v4.2h3.7c0.6,0,1,0.4,1,1v23.6
		C24.8,31.5,24.3,31.9,23.8,31.9z"/>

			<path class="st7" d="M18.6,21.5H7.2c-0.6,0-1-0.4-1-1v-8c0-0.6,0.4-1,1-1h11.3c0.4,0,0.8,0.2,0.9,0.6s0.1,0.8-0.2,1.1l-3.1,3.3
				l3.1,3.3c0.3,0.3,0.3,0.7,0.2,1.1S19,21.5,18.6,21.5z M8.2,19.5h8.1l-2.1-2.3c-0.4-0.4-0.4-1,0-1.4l2.1-2.3H8.2V19.5z"/>
			<rect x="6.2" y="18.5" class="st7" width="2" height="7"/>

</svg>
