<svg version="1.1" id="Layer_1" xmlns="http://www.w3.org/2000/svg" xmlns:xlink="http://www.w3.org/1999/xlink" x="0px" y="0px"
	 viewBox="0 0 30.1 30.8" style="enable-background:new 0 0 30.1 30.8;" xml:space="preserve">
<style type="text/css">
	.st0{fill:#0086FF;}
	.st1{fill:#FFFFFF;}
</style>
<g>
	<g>
		<path class="st0" d="M29.1,30.8H1c-0.6,0-1-0.4-1-1V1c0-0.6,0.4-1,1-1h23.2c0.6,0,1,0.4,1,1v3.8h4c0.6,0,1,0.4,1,1v23.9
			C30.1,30.3,29.7,30.8,29.1,30.8z"/>
	</g>
	<g>
		<g>
			<path class="st1" d="M21.4,19.9H10.1c-0.6,0-1-0.4-1-1v-8c0-0.6,0.4-1,1-1h11.3c0.4,0,0.8,0.2,0.9,0.6s0.1,0.8-0.2,1.1l-3.1,3.3
				l3.1,3.3c0.3,0.3,0.3,0.7,0.2,1.1S21.8,19.9,21.4,19.9z M11.1,17.9h8.1L17,15.6c-0.4-0.4-0.4-1,0-1.4l2.1-2.3h-8.1V17.9z"/>
			<rect x="9.1" y="16.9" class="st1" width="2" height="7"/>
		</g>
	</g>
</g>
</svg>
