<svg version="1.1" id="Layer_1" xmlns="http://www.w3.org/2000/svg" xmlns:xlink="http://www.w3.org/1999/xlink" x="0px" y="0px"
	 viewBox="0 0 25.4 32.2" style="enable-background:new 0 0 25.4 32.2;" xml:space="preserve">
	<path d="M23.8,31.4H7.2c-0.6,0-1-0.4-1-1s0.4-1,1-1h15.6V7.9h-3.7c-0.6,0-1-0.4-1-1V2.7H2.7v26.5c0,0.6-0.4,1-1,1
		s-1-0.4-1-1V1.7c0-0.6,0.4-1,1-1h17.5c0.6,0,1,0.4,1,1v4.2h3.7c0.6,0,1,0.4,1,1v23.6C24.8,31,24.4,31.4,23.8,31.4z"/>
	<path d="M17.8,12.6H7.2c-0.6,0-1-0.4-1-1s0.4-1,1-1h10.6c0.6,0,1,0.4,1,1S18.4,12.6,17.8,12.6z"/>
	<path d="M17.8,17.6H7.2c-0.6,0-1-0.4-1-1s0.4-1,1-1h10.6c0.6,0,1,0.4,1,1S18.4,17.6,17.8,17.6z"/>
	<path d="M17.8,22.6H7.2c-0.6,0-1-0.4-1-1s0.4-1,1-1h10.6c0.6,0,1,0.4,1,1S18.4,22.6,17.8,22.6z"/>
</svg>
