<svg version="1.1" id="Layer_1" xmlns="http://www.w3.org/2000/svg" xmlns:xlink="http://www.w3.org/1999/xlink" x="0px" y="0px"
	 viewBox="0 0 30.1 30.8" style="enable-background:new 0 0 30.1 30.8;" xml:space="preserve">
<g>
	<path  d="M29.1,30.8H6.5c-0.6,0-1-0.4-1-1s0.4-1,1-1h21.6V6.8h-4c-0.6,0-1-0.4-1-1V2H2v26.5c0,0.6-0.4,1-1,1s-1-0.4-1-1
		V1c0-0.6,0.4-1,1-1h23.2c0.6,0,1,0.4,1,1v3.8h4c0.6,0,1,0.4,1,1v23.9C30.1,30.3,29.7,30.8,29.1,30.8z"/>
	<path  d="M23.1,11.9H6.5c-0.6,0-1-0.4-1-1s0.4-1,1-1h16.6c0.6,0,1,0.4,1,1S23.6,11.9,23.1,11.9z"/>
	<path  d="M23.1,16.9H6.5c-0.6,0-1-0.4-1-1s0.4-1,1-1h16.6c0.6,0,1,0.4,1,1S23.6,16.9,23.1,16.9z"/>
	<path  d="M23.1,21.9H6.5c-0.6,0-1-0.4-1-1s0.4-1,1-1h16.6c0.6,0,1,0.4,1,1S23.6,21.9,23.1,21.9z"/>
</g>
</svg>
