<svg version="1.1" id="Layer_1" xmlns="http://www.w3.org/2000/svg" xmlns:xlink="http://www.w3.org/1999/xlink" x="0px" y="0px"
	 viewBox="0 0 30.1 30.8" style="enable-background:new 0 0 30.1 30.8;" xml:space="preserve">
<style type="text/css">
	.st0{fill:#0086FF;}
	.st1{fill:#FFFFFF;}
</style>
<g>
	<g>
		<path class="st0" d="M29.1,30.8H1c-0.6,0-1-0.4-1-1V1c0-0.6,0.4-1,1-1h23.2c0.6,0,1,0.4,1,1v3.8h4c0.6,0,1,0.4,1,1v23.9
			C30.1,30.3,29.7,30.8,29.1,30.8z"/>
	</g>
	<g>
		<g>
			<circle class="st1" cx="15.3" cy="16.9" r="7.5"/>
			<path class="st0" d="M15.3,25.4c-4.7,0-8.5-3.8-8.5-8.5s3.8-8.5,8.5-8.5s8.5,3.8,8.5,8.5S20,25.4,15.3,25.4z M15.3,10.4
				c-3.6,0-6.5,2.9-6.5,6.5s2.9,6.5,6.5,6.5s6.5-2.9,6.5-6.5S18.9,10.4,15.3,10.4z"/>
		</g>
		<g>
			<polyline class="st1" points="12.1,16.5 15.1,19.2 19,14.2 			"/>
			<path class="st0" d="M15.1,20.2c-0.2,0-0.5-0.1-0.7-0.3l-3-2.7l1.3-1.5l2.2,2l3.2-4.1l1.6,1.2l-3.9,4.9
				C15.8,20,15.5,20.1,15.1,20.2C15.2,20.2,15.2,20.2,15.1,20.2z"/>
		</g>
	</g>
</g>
</svg>
