<svg version="1.1" id="Layer_1" xmlns="http://www.w3.org/2000/svg" xmlns:xlink="http://www.w3.org/1999/xlink" x="0px" y="0px"
	 viewBox="0 0 31.6 31.4" style="enable-background:new 0 0 31.6 31.4;" xml:space="preserve">
<g>
	<g>
		<path  d="M30.2,31.4H6.7c-0.6,0-1-0.4-1-1s0.4-1,1-1h22.8c0.1-0.3,0.1-0.6,0.1-0.8c0-0.7-0.3-1.4-0.8-2.1
			c-0.8-0.9-1.7-1.2-3-1.5c-1.4-0.3-2.9-0.7-4.4-2.1c-0.6-0.6-1.1-1.3-1.5-2c-0.3-0.5-0.1-1.1,0.4-1.4c0.5-0.3,1.1-0.1,1.4,0.4
			c0.3,0.6,0.7,1.1,1.2,1.5c1.1,1,2.3,1.3,3.5,1.6c1.4,0.3,2.9,0.7,4.1,2.2c1,1.3,1.3,2.5,1.3,3.3c0,0.8-0.1,1.6-0.5,2.3
			C30.9,31.2,30.6,31.4,30.2,31.4z"/>
		<path  d="M1.4,31.4c-0.4,0-0.7-0.2-0.9-0.6C0.1,30.1,0,29.3,0,28.6c0-0.8,0.3-2,1.3-3.3c1.2-1.5,2.6-1.8,4.1-2.2
			c1.2-0.3,2.4-0.6,3.5-1.6c0.5-0.4,0.8-0.9,1.2-1.5c0.3-0.5,0.9-0.7,1.4-0.4c0.5,0.3,0.7,0.9,0.4,1.4c-0.4,0.8-0.9,1.4-1.5,2
			c-1.5,1.4-3,1.8-4.4,2.1c-1.2,0.3-2.2,0.5-3,1.5C2.3,27.2,2,27.9,2,28.6c0,0.5,0.1,1,0.3,1.4c0.2,0.5,0,1.1-0.5,1.3
			C1.7,31.4,1.5,31.4,1.4,31.4z"/>
	</g>
	<path  d="M15.8,19.5c-0.5,0-1.1,0-1.4-0.1c-2-0.4-3.2-1.8-3.8-2.4C7,12.9,8,7.3,8,7.1C8.3,5.6,8.7,3.2,11,1.5
		C12.6,0.3,14.4,0,15.6,0l0.1,0c0,0,0.2,0,0.3,0l0,0l0,0c0,0,0,0,0,0c0.1,0,2.7,0.1,4.7,1.6c2.1,1.6,2.6,4.1,2.8,5.5
		c0,0.2,1.1,5.8-2.5,9.8c-0.6,0.6-1.8,2-3.8,2.4C16.8,19.4,16.3,19.5,15.8,19.5z M15.8,2C15.7,2,15.7,2,15.8,2c-0.1,0-0.2,0-0.2,0
		c-0.9,0-2.2,0.2-3.4,1.1c-1.6,1.2-1.9,3-2.2,4.4c0,0.1-0.9,4.9,2.1,8.1c0.5,0.6,1.3,1.5,2.7,1.8c0.5,0.1,1.5,0.1,2,0
		c1.4-0.3,2.2-1.2,2.7-1.8c2.9-3.3,2.1-8.1,2.1-8.1c-0.2-1.2-0.6-3.1-2.1-4.2C18.1,2.2,16.1,2,16,2C15.9,2,15.8,2,15.8,2z"/>
</g>
</svg>
