<?xml version="1.0" encoding="utf-8"?>
<svg viewBox="-277 386 38.3 20.5">
<g>
	<g>
		<path class="st0" d="M-238.7,394.6c-0.2-0.3-0.5-0.6-0.9-0.6h-32.6c-0.6,0-0.8,0.6-0.8,1.2v8l-0.3,0.1c-0.4,0.4-1.9,1.4-2.9,1.4
			s-1.1,1.6,0,1.8c2,0,2.8-0.9,3.5-1.6c0.7,0.7,2.1,1.6,3.4,1.6c1.3,0,2.6-0.9,3.4-1.6c0.7,0.7,2,1.6,3.4,1.6c1.3,0,2.6-0.9,3.3-1.6
			c0.7,0.7,2,1.6,3.3,1.6s2.6-0.9,3.3-1.6c0.7,0.7,2,1.6,3.3,1.6s2.6-0.9,3.3-1.6c0.7,0.7,2,1.6,3.3,1.6c0.5,0,0.9-0.4,0.9-0.9
			s-0.4-0.9-0.9-0.9c-0.6,0-1.3-0.5-1.9-0.9l5.6-8C-238.6,395.4-238.6,394.9-238.7,394.6z M-246.2,402.7c-0.1,0-0.3,0.2-0.4,0.3
			c-0.4,0.4-1.6,1.7-2.7,1.7c-1,0-2.3-1.2-2.7-1.6c-0.3-0.4-1-0.4-1.4,0c-0.4,0.4-1.6,1.7-2.7,1.7s-2.3-1.2-2.7-1.6
			c-0.3-0.4-1-0.4-1.4,0c-0.4,0.4-1.6,1.7-2.7,1.7c-1,0-2.3-1.2-2.7-1.6c0.3-0.3,0-0.3-0.2-0.3l0,0c-0.3,0-0.5,0-0.7,0.2
			c-0.4,0.4-1.5,1.5-2.5,1.5c-0.8,0-1.9-0.6-1.9-0.8V396h29.5L-246.2,402.7z"/>
		<path class="st0" d="M-271,391h6v2h2v-2.8c0-0.6-0.7-1.2-1.2-1.2h-8c-0.6,0-0.8,0.6-0.8,1.2v2.8h2V391z"/>
		<path class="st0" d="M-272.2,388h8c0.6,0,1-0.4,1-1s-0.4-1-1-1h-8c-0.6,0-1,0.4-1,1S-272.8,388-272.2,388z"/>
	</g>
</g>
</svg>
