<svg version="1.1" id="Layer_1" xmlns="http://www.w3.org/2000/svg" xmlns:xlink="http://www.w3.org/1999/xlink" x="0px" y="0px"
	 viewBox="0 0 52.5 25.9" style="enable-background:new 0 0 52.5 25.9;" xml:space="preserve">

	<path d="M51.1,12.5c-0.2-0.3-0.5-0.5-0.9-0.5H16.1c-0.6,0-1,0.4-1,1v3.4c0,0.6,0.4,1,1,1s1-0.4,1-1v-2.4h31.2l-5.5,8.2
		c0,0.1,0,0.1-0.1,0.2c-0.2,0-0.3,0.1-0.5,0.1c-0.8,0-1.5-0.3-1.7-0.4c-0.8-0.4-1.3-1-1.5-1.4c-0.2-0.3-0.5-0.5-0.8-0.5c0,0,0,0,0,0
		c-0.3,0-0.7,0.2-0.8,0.5c-0.1,0.2-1.1,1.7-2.7,1.8c-0.7,0-1.4-0.2-2.2-0.7c-0.5-0.3-0.9-0.7-1.2-1.2C31,20.1,30.7,20,30.3,20
		c-0.4,0-0.7,0.2-0.8,0.5c-0.2,0.4-0.7,1.3-1.9,1.6c-0.6,0.2-1.6,0.3-2.7-0.4c-0.5-0.3-1-0.7-1.3-1.3c-0.2-0.3-0.5-0.5-0.9-0.5
		c-0.4,0-0.7,0.2-0.8,0.6c-0.2,0.4-0.6,1.2-1.5,1.6c-0.2,0.1-0.7,0.3-1.4,0.3c-1.4-0.1-2.2-1.8-2.2-1.8c-0.2-0.4-0.5-0.6-0.9-0.6
		c0,0,0,0,0,0c-0.4,0-0.7,0.2-0.9,0.6c-0.1,0.2-0.7,1.3-1.9,1.6c-1.2,0.3-2.5-0.4-3.2-1.5c-0.3-0.5-0.9-0.6-1.4-0.3
		c-0.5,0.3-0.6,0.9-0.3,1.4c1.1,1.9,3.3,2.9,5.3,2.5c1-0.2,1.8-0.8,2.3-1.3c0.6,0.7,1.6,1.5,2.9,1.6c0.1,0,0.3,0,0.4,0
		c1,0,1.7-0.4,2-0.5c0.7-0.3,1.3-0.8,1.7-1.3c0.3,0.3,0.7,0.6,1.1,0.8c1.8,1,3.4,0.8,4.4,0.5c1-0.3,1.7-0.9,2.2-1.4
		c0.3,0.3,0.6,0.5,0.9,0.7c1.1,0.7,2.2,1.1,3.4,1c1.6-0.1,2.7-0.9,3.5-1.7c0.4,0.4,0.9,0.8,1.5,1.1c0.3,0.2,1.4,0.7,2.8,0.6
		c1.4-0.1,2.5-0.8,3.2-1.5c0.2,0.3,0.5,0.5,0.8,0.8c0.5,0.4,1.2,0.7,1.9,0.8c0.5,0.1,1.1-0.3,1.1-0.8c0.1-0.5-0.3-1.1-0.8-1.1
		c-0.4-0.1-0.7-0.2-1-0.4c-0.5-0.4-0.7-0.9-0.8-1.2c-0.1-0.2-0.2-0.4-0.3-0.5l4.6-6.8C51.3,13.2,51.3,12.8,51.1,12.5z"/>
	<path d="M16.1,3.7h8.5c0.6,0,1-0.4,1-1s-0.4-1-1-1h-8.5c-0.6,0-1,0.4-1,1S15.6,3.7,16.1,3.7z"/>
	<path d="M16.1,10.2c0.6,0,1-0.4,1-1v-2h6.5v2c0,0.6,0.4,1,1,1s1-0.4,1-1v-3c0-0.6-0.4-1-1-1h-8.5c-0.6,0-1,0.4-1,1v3
		C15.1,9.7,15.6,10.2,16.1,10.2z"/>
	<path d="M8.1,11.3h3.5c0.6,0,1-0.4,1-1s-0.4-1-1-1H8.1V5.8c0-0.6-0.4-1-1-1s-1,0.4-1,1v3.5H2.6c-0.6,0-1,0.4-1,1
		s0.4,1,1,1h3.5v3.5c0,0.6,0.4,1,1,1s1-0.4,1-1V11.3z"/>

</svg>
