<svg version="1.1" id="Layer_1" xmlns="http://www.w3.org/2000/svg" xmlns:xlink="http://www.w3.org/1999/xlink" x="0px" y="0px"
	 viewBox="0 0 47.6 24.9" style="enable-background:new 0 0 47.6 24.9;" xml:space="preserve">

<g>
	<path  d="M10,11.7H1c-0.6,0-1-0.4-1-1s0.4-1,1-1h9c0.6,0,1,0.4,1,1S10.6,11.7,10,11.7z"/>
	<path  d="M17.5,24.9c-0.1,0-0.3,0-0.4,0c-1.4-0.1-2.3-1-3-1.7c-0.5,0.4-1.1,0.9-1.9,1.1c-1,0.4-2.7,0.6-4.8-0.5
		c-0.9-0.5-1.6-1.2-2.2-2c-0.3-0.5-0.2-1.1,0.2-1.4c0.5-0.3,1.1-0.2,1.4,0.2c0.4,0.6,0.9,1.1,1.5,1.4c1.1,0.6,2.2,0.7,3.1,0.4
		c1-0.3,1.5-1.1,1.8-1.5c0.2-0.3,0.5-0.5,0.9-0.5c0.4,0,0.7,0.2,0.8,0.6c0,0,0.8,1.7,2.2,1.8c0.6,0.1,1.2-0.2,1.4-0.3
		c0.9-0.4,1.3-1.2,1.5-1.6c0.2-0.3,0.5-0.6,0.8-0.6c0.4,0,0.7,0.1,0.9,0.5c0.3,0.5,0.8,1,1.3,1.3c0.9,0.5,1.9,0.7,2.7,0.4
		c1.1-0.4,1.7-1.4,1.8-1.6c0.2-0.3,0.5-0.5,0.8-0.5c0.4,0,0.7,0.2,0.9,0.5c0.3,0.5,0.7,0.9,1.2,1.2c0.7,0.5,1.5,0.7,2.2,0.7
		c1.7-0.1,2.6-1.6,2.7-1.8c0.2-0.3,0.5-0.5,0.8-0.5c0,0,0,0,0,0c0.3,0,0.7,0.2,0.8,0.5c0.3,0.4,0.8,1,1.6,1.4
		c0.2,0.1,0.9,0.5,1.7,0.4c1.6-0.1,2.6-1.7,2.7-1.8c0.2-0.3,0.5-0.5,0.9-0.5c0.4,0,0.7,0.2,0.9,0.5c0.2,0.4,0.6,0.9,1.3,1.4
		c0.5,0.3,0.6,0.9,0.3,1.4c-0.3,0.5-0.9,0.6-1.4,0.3c-0.5-0.3-0.8-0.6-1.1-0.9c-0.7,0.7-1.9,1.5-3.4,1.6c-1.4,0.1-2.4-0.5-2.8-0.6
		c-0.6-0.3-1.1-0.7-1.5-1.1c-0.7,0.7-1.9,1.6-3.5,1.7c-1.2,0.1-2.3-0.3-3.4-1c-0.3-0.2-0.6-0.4-0.9-0.7c-0.5,0.5-1.2,1.1-2.2,1.4
		c-1.4,0.5-2.9,0.3-4.4-0.5c-0.4-0.2-0.8-0.5-1.1-0.8c-0.4,0.5-1,1-1.7,1.3C19.2,24.5,18.4,24.9,17.5,24.9z"/>
	<path  d="M39.1,24c-0.2,0-0.4-0.1-0.5-0.2c-0.5-0.3-0.6-0.9-0.3-1.4l6.6-10.2H15.5v4.4c0,0.6-0.4,1-1,1s-1-0.4-1-1v-5.4
		c0-0.6,0.4-1,1-1h32.1c0.4,0,0.7,0.2,0.9,0.5s0.2,0.7,0,1l-7.6,11.7C39.7,23.8,39.4,24,39.1,24z"/>
	<path  d="M24.1,2h-9.5c-0.6,0-1-0.4-1-1s0.4-1,1-1h9.5c0.6,0,1,0.4,1,1S24.6,2,24.1,2z"/>
	<path  d="M24.1,8.5c-0.6,0-1-0.4-1-1v-2h-7.5v2c0,0.6-0.4,1-1,1s-1-0.4-1-1v-3c0-0.6,0.4-1,1-1h9.5c0.6,0,1,0.4,1,1v3
		C25.1,8.1,24.6,8.5,24.1,8.5z"/>
	<path  d="M5.5,16.2c-0.6,0-1-0.4-1-1v-9c0-0.6,0.4-1,1-1s1,0.4,1,1v9C6.5,15.7,6.1,16.2,5.5,16.2z"/>
</g>
</svg>
