<svg version="1.1" id="Isolation_Mode" xmlns="http://www.w3.org/2000/svg" xmlns:xlink="http://www.w3.org/1999/xlink" x="0px"
	 y="0px" viewBox="-212.3 385.2 132.6 20.7" style="enable-background:new -212.3 385.2 132.6 20.7;" xml:space="preserve">
<style type="text/css">
	.st0{fill:#FFFFFF;}
</style>
<g>
	<path class="st0" d="M-176.7,400.4c0.6-0.3,1.2-0.4,1.7-0.8c1.3-1.1,2.5-2.4,3.8-3.6c0.3-0.2,0.6-0.4,1-0.6c0,0.4,0.1,0.8,0,1.2
		c-0.4,1.1-0.8,2.1-1.2,3.2c0.1,0.1,0.2,0.1,0.3,0.2c0.3-0.1,0.7-0.1,1-0.2c1.6-0.8,3.1-1.6,3.9-3.3c0.5-1.1,0.6-1,1.7-0.8
		c-0.7,1.5-2,2.7-2,4.4c0.1,0.1,0.2,0.2,0.3,0.3c0.9-0.6,1.8-1.2,2.6-1.9c0.7-0.6,1.3-1.5,2-2.2c0.2-0.2,0.4-0.2,0.7-0.4
		c0.1,0.2,0.3,0.5,0.3,0.7c-0.2,0.7-0.5,1.5-0.7,2.2c-0.1,0.4-0.1,0.8-0.2,1.2c1.7,0,3.5-1.6,3.9-3.1c0.2-0.7,0.9-1.4,1.5-2
		c0.1-0.1,0.6,0.2,1.1,0.3c-0.6,0.5-1,0.8-1.3,1.1c-0.7,0.6-0.7,1.2-0.1,1.8c0.5,0.6,1.1,1.2,1.6,1.9c1.5-0.7,2.9-1.8,4-3.1
		c0.7-0.7,1.4-1.4,2.2-1.9c0.4-0.2,1.1-0.1,1.5,0.2c0.2,0.1,0.1,0.9-0.1,1.3c-0.6,1.5-2,2.2-3.6,2.1c-0.1,0.2-0.2,0.4-0.3,0.7
		c-0.3,1,0.2,1.7,1.2,1.2c1.6-0.7,3.1-1.6,4.6-2.5c0.3-0.1,0.5-0.4,0.9-0.5c-0.1,0.3-0.2,0.7-0.4,0.8c-1.5,1-2.9,2.1-4.5,2.8
		c-1.8,0.8-2.7,0.1-2.7-2.1c-1.1,0.9-2.2,1.6-3.2,2.5c-1,0.8-2.2,0.9-3-0.1c0.8-0.3,1.6-0.7,2.7-1.1c-0.6-0.8-1.2-1.4-1.6-1.9
		c-1.2,0.8-2.3,1.7-3.5,2.3c-1.3,0.7-2,0.1-1.8-1.4c0-0.2,0-0.4,0.1-0.8c-0.6,0.5-1.1,0.9-1.7,1.3c-0.4,0.3-0.8,0.5-1.2,0.8
		c-1.4,0.7-2,0.3-2.3-1.4c-0.8,0.5-1.6,1-2.4,1.3c-0.6,0.2-1.5,0.4-1.9,0.1c-0.4-0.3-0.2-1.2-0.3-1.8c0-0.1,0-0.3,0-0.5
		c-0.6,0.6-1.1,1.1-1.7,1.5c-0.6,0.4-1.1,0.8-1.8,1.2c-1.5,0.7-2.1,0.4-2.1-1.1c-1.3,0.5-2.5,1.1-3.8,1.5c-2.2,0.7-2.8,0.1-2.7-2
		c-1,0.5-2,1.2-3,1.6c-1,0.4-2.1,0.9-3-0.1c-0.8-0.9-0.2-1.9,0.1-2.8c0.5-1.3,1.4-2.4,2.7-2.9c0.5-0.2,1.1,0,1.7,0
		c-0.1,0.5,0,1.1-0.2,1.6c-0.7,1.4-1.9,2-3.5,1.8c-0.1,0.2-0.2,0.4-0.3,0.7c-0.3,1,0.1,1.6,1.1,1.3c2.1-0.5,3.9-1.7,5.4-3.3
		c0.7-0.8,1.5-1.5,2.3-2.1c0.6-0.4,1.2-0.1,1.2,0.8c-1.9,0.4-3.1,1.7-3.7,3.4c-0.5,1.2,0,1.7,1.2,1.4c2.3-0.7,4.4-1.5,6-3.5
		c0.5-0.6,1.1-1.1,1.8-1.6c0.3-0.2,0.8-0.3,1.2-0.3c0.2,0,0.4,0.3,0.5,0.4c-0.1,0.2-0.3,0.3-0.4,0.5c-1.1,0.9-2.2,1.7-3.2,2.6
		c-0.4,0.4-0.6,0.9-0.9,1.4C-176.9,400.1-176.8,400.3-176.7,400.4z M-188.8,397.1c1.3,0.5,2.5-0.5,2.5-2
		C-187.2,395.9-188,396.5-188.8,397.1z M-150.3,397.2c0.1,0.1,0.1,0.2,0.2,0.3c1.2,0.2,2.4-0.9,2.2-2.3
		C-148.8,395.9-149.5,396.5-150.3,397.2z"/>
	<path class="st0" d="M-203,388.4c-1.8,0.3-3.6,0.6-5.5,1c-0.4,0.1-0.9,0.5-1.1-0.2c-0.2-0.7,0.5-0.8,0.9-0.9
		c1.9-0.2,3.8-0.5,5.7-0.6c0.7,0,1-0.3,1.4-0.8c0.4-0.6,0.9-1.1,1.5-1.7c0.7,1.1-0.2,1.6-0.5,2.2c1.7,0.1,3.3,0.2,5,0.5
		c0.7,0.1,1.5,0.4,2.2,0.7c0.9,0.5,1.1,1.4,0.2,2c-1,0.8-2.1,1.4-3.2,2.1c-0.6,0.3-1.2,0.6-2,0.9c0.9,0.3,1.6,0.4,2.3,0.8
		c1.3,0.7,2.7,1.3,3.8,2.2c1.2,0.9,1.2,1.9,0,2.8c-1.5,1-3.2,2-4.9,2.6c-2.3,0.8-4.7,1.2-7,1.7c-0.3,0.1-0.7,0.1-1,0
		c-0.5-0.2-0.9-0.5-0.4-1c0.4-0.5,1-0.8,1.6-1.2c0.1,0.1,0.1,0.2,0.2,0.3c-0.2,0.3-0.4,0.5-0.7,1c0.8-0.1,1.4-0.1,2-0.2
		c2.6-0.4,5.2-1.1,7.6-2.3c0.7-0.4,1.4-0.8,2-1.3c0.9-0.8,0.9-1.3-0.1-2c-1.7-1.4-3.8-2.1-5.9-2.4c-1.6-0.2-3.2-0.3-4.8-0.4
		c-0.4,0-0.8-0.1-1.4-0.2c-1.6,2.7-3.3,5.4-5,8.2c-0.5,0.9-0.7,2-1.1,3c-0.1,0.3-0.6,0.4-0.9,0.7c-0.1-0.4-0.3-0.9-0.2-1.2
		c0.4-1,0.8-1.9,1.3-2.8c2.5-4.1,5.1-8.2,7.7-12.3c0.2-0.3,0.3-0.5,0.5-0.8C-202.9,388.6-202.9,388.5-203,388.4z M-204.7,393.1
		c0.7,0,1.1,0,1.6,0c1.1,0,2.4,0.3,3.4,0c1.7-0.5,3.3-1.4,4.9-2.2c0.4-0.2,0.7-0.7,1-1.1c-0.5-0.3-0.9-0.7-1.4-0.8
		c-1.9-0.2-3.9-0.3-5.8-0.5c-0.2,0-0.5,0.1-0.6,0.2C-202.6,390.1-203.6,391.5-204.7,393.1z"/>
	<path class="st0" d="M-96.5,401.1c0.2-0.5,0.3-1,0.5-1.5c-0.7,0.3-1.4,0.7-2.1,1c-1.7,0.6-2.3,0-1.9-1.7c0-0.2,0-0.3,0.1-0.7
		c-0.6,0.6-1.2,1.1-1.7,1.5c-0.6,0.4-1.2,0.9-1.9,1.2c-1.5,0.7-2,0.3-2-1.1c-1.5,0.5-2.9,1.2-4.5,1.6c-1.6,0.5-2.4-0.3-2-2
		c0.5-1.9,1.5-3.5,3.3-4.4c0.8-0.4,1.1-0.2,1.3,0.8c-1.9,0.4-3,1.7-3.7,3.4c-0.5,1.2,0,1.7,1.2,1.4c2.3-0.7,4.4-1.5,6-3.5
		c0.5-0.6,1.1-1.1,1.7-1.5c0.3-0.2,0.7-0.3,1.1-0.4c0.2,0,0.5,0.2,0.7,0.4c-0.2,0.2-0.3,0.4-0.5,0.6c-1,0.8-2.1,1.6-3.1,2.5
		c-0.4,0.4-0.6,0.9-0.9,1.4c0.1,0.1,0.2,0.2,0.2,0.3c0.6-0.2,1.2-0.4,1.7-0.8c1.3-1.1,2.5-2.4,3.8-3.6c0.3-0.3,0.7-0.4,1-0.6
		c0,0.4,0,0.9-0.1,1.3c-0.3,1-0.8,2.1-1.1,3.1c0.1,0.1,0.2,0.1,0.3,0.2c0.3-0.1,0.6,0,0.9-0.2c1.7-0.8,3.4-1.7,4.1-3.7
		c0-0.1,0.1-0.2,0.1-0.2c0.3-0.2,0.5-0.4,0.8-0.6c0,0.3,0.1,0.7,0,0.9c-0.2,0.5-0.5,1-0.9,1.8c1.2-0.7,2.1-1.4,3.1-1.8
		c0.8-0.3,1.6-0.5,2.5-0.5c0.2,0,0.7,0.5,0.7,0.7c0,0.6-0.5,0.3-0.9,0.3c-0.6-0.1-1.3-0.1-1.8,0.2c-1.9,0.8-3.6,2-4.8,3.8
		C-95.6,401-95.8,401.4-96.5,401.1z"/>
	<path class="st0" d="M-134.6,396c-1.3,1.2-2.6,2.4-2.8,4.4c0.5-0.2,0.8-0.4,1.1-0.6c1.4-1.3,2.7-2.6,4-4c0.5-0.5,0.8-0.7,1.5-0.3
		c-0.4,0.5-0.8,1-1.1,1.5c-0.2,0.3-0.5,0.6-0.6,1c-0.1,0.5-0.3,1.2-0.1,1.6c0.2,0.3,1,0.4,1.5,0.2c1.6-0.6,2.9-1.6,3.5-3.2
		c0.3-0.8,0.7-1.6-0.3-2.2c0,0,0.2-0.4,0.3-0.6c0.3,0.3,0.9,0.5,1,0.8c0.1,0.7,0.1,1.5-0.1,2.2c-0.7,1.9-2.2,3.2-4,3.9
		c-1.5,0.6-2.6,0-2.8-1.7c-0.7,0.5-1.3,1.1-2,1.6c-0.7,0.4-1.5,1.1-2.2,0.4c-0.3-0.4-0.2-1.4,0-2c0.4-1,1-1.9,1.6-2.8
		C-135.6,395.2-135.4,395.3-134.6,396z"/>
	<path class="st0" d="M-124.9,398.4c-0.1,0.2-0.2,0.4-0.3,0.7c-0.3,1,0.2,1.6,1.1,1.2c1.6-0.7,3.1-1.6,4.6-2.4
		c0.3-0.2,0.6-0.5,1.1-0.6c-0.1,0.3-0.2,0.6-0.4,0.8c-1.5,1.4-3.1,2.6-5.2,3c-1.4,0.3-2.3-0.6-2-2c0.4-1.7,1.3-3.1,2.7-4.1
		c0.2-0.1,0.5-0.3,0.7-0.3c0.5,0,1.1-0.1,1.3,0.2c0.2,0.2,0.2,0.9,0,1.3C-121.9,397.8-123.2,398.5-124.9,398.4z M-124.6,397.3
		c1.4,0.4,2.7-0.7,2.6-2.1C-122.9,395.9-123.6,396.5-124.6,397.3z"/>
	<path class="st0" d="M-86.1,398.4c-0.1,0.2-0.2,0.4-0.2,0.6c-0.4,1.1,0.1,1.7,1.2,1.3c1.2-0.4,2.3-1,3.4-1.7c0.7-0.4,1.2-0.9,2-1.3
		c-0.1,0.3-0.2,0.6-0.4,0.8c-1.4,1.4-3,2.5-5,2.9c-1.6,0.4-2.5-0.5-2.1-2.1c0.4-1.6,1.2-2.8,2.5-3.8c0.2-0.2,0.5-0.4,0.8-0.4
		c0.5,0,1.1-0.1,1.5,0.2c0.2,0.1,0.1,0.9-0.1,1.3C-83.1,397.8-84.4,398.5-86.1,398.4z M-83,395.3c-1.2,0.5-2,1-2.5,2.1
		C-84.3,397.6-83.2,396.7-83,395.3z"/>
</g>
</svg>
