
<!-- Generator: Adobe Illustrator 19.1.0, SVG Export Plug-In . SVG Version: 6.00 Build 0)  -->
<svg version="1.1" id="Layer_1" xmlns="http://www.w3.org/2000/svg" xmlns:xlink="http://www.w3.org/1999/xlink" x="0px" y="0px"
	 viewBox="-765.6 595.9 18.3 71" style="enable-background:new -765.6 595.9 18.3 71;" xml:space="preserve">
<style type="text/css">
	.st0{fill:#FFFFFF;stroke:#CCCCCC;stroke-miterlimit:10;}
	.st1{fill:#CCCCCC;}
	.st2{fill:#FFFFFF;stroke:#666666;stroke-miterlimit:10;}
	.st3{fill:#666666;}
</style>
<g>
	<g>
		<path class="st0" d="M-748,601.4c0,0-3.9,5-8.5,5c-4.7,0-8.5-5-8.5-5s3.9-5,8.5-5C-751.8,596.5-748,601.4-748,601.4z"/>
		<ellipse class="st1" cx="-754.6" cy="601.3" rx="2.9" ry="2.8"/>
	</g>
	<g>
		<path class="st0" d="M-765,625.4c0,0,3.9-5,8.5-5c4.7,0,8.5,5,8.5,5s-3.9,5-8.5,5C-761.1,630.4-765,625.4-765,625.4z"/>
		<ellipse class="st1" cx="-758.3" cy="625.6" rx="2.9" ry="2.8"/>
	</g>
	<g>
		<g>
			<path class="st2" d="M-748,637.4c0,0-3.9,5-8.5,5c-4.7,0-8.5-5-8.5-5s3.9-5,8.5-5C-751.8,632.4-748,637.4-748,637.4z"/>
			<ellipse class="st3" cx="-758.4" cy="637.2" rx="2.9" ry="2.8"/>
		</g>
	</g>
	<g>
		<g>
			<path class="st2" d="M-765,613.4c0,0,3.9-5,8.5-5c4.7,0,8.5,5,8.5,5s-3.9,5-8.5,5C-761.1,618.4-765,613.4-765,613.4z"/>
			<ellipse class="st3" cx="-754.6" cy="613.2" rx="2.9" ry="2.8"/>
		</g>
	</g>
	<g>
		<path class="st2" d="M-748,661.4c0,0-3.9,5-8.5,5c-4.7,0-8.5-5-8.5-5s3.9-5,8.5-5C-751.8,656.4-748,661.4-748,661.4z"/>
		<ellipse class="st3" cx="-756.5" cy="661.2" rx="2.9" ry="2.8"/>
	</g>
	<g>
		<path class="st0" d="M-748,649.4c0,0-3.9,5-8.5,5c-4.7,0-8.5-5-8.5-5s3.9-5,8.5-5C-751.8,644.5-748,649.4-748,649.4z"/>
		<ellipse class="st1" cx="-756.5" cy="649.3" rx="2.9" ry="2.8"/>
	</g>
</g>
</svg>
