<!-- Generator: Adobe Illustrator 19.1.0, SVG Export Plug-In . SVG Version: 6.00 Build 0)  -->
<svg version="1.1" id="Isolation_Mode" xmlns="http://www.w3.org/2000/svg" xmlns:xlink="http://www.w3.org/1999/xlink" x="0px"
	 y="0px" viewBox="0 0 220.1 30" style="enable-background:new 0 0 220.1 30;" xml:space="preserve">
<style type="text/css">
	.st0{fill:#0086FF;}
</style>
<g>
	<g>
		<g>
			<path class="st0" d="M185.9,12.1c0,3.4-2.7,5.6-6.1,5.6h-3.3c-0.2,0-0.3,0-0.3,0.3v5.7c0,0.4-0.3,0.8-0.8,0.8h-0.1
				c-0.4,0-0.8-0.3-0.8-0.8V7.4c0-0.4,0.3-0.8,0.8-0.8h4.5C183.2,6.7,185.9,8.7,185.9,12.1z M184.4,12.1c0-2.5-2-3.9-4.6-3.9h-3.3
				c-0.2,0-0.3,0.1-0.3,0.3v7.3c0,0.2,0,0.3,0.3,0.3h3.4C182.3,16.1,184.4,14.6,184.4,12.1z"/>
			<path class="st0" d="M220.1,15.6c0,5.1-3.9,9.2-8.9,9.2c-5.1,0-9.2-4.1-9.2-9.2c0-5.1,4.1-9.2,9.2-9.2
				C216.3,6.4,220.1,10.5,220.1,15.6z M218.6,15.6c0-4.2-3.2-7.7-7.4-7.7c-4.2,0-7.6,3.5-7.6,7.7c0,4.2,3.4,7.7,7.6,7.7
				C215.4,23.3,218.6,19.8,218.6,15.6z"/>
			<path class="st0" d="M90.4,11.8c0,3.5-2.8,5.8-6.3,5.8h-3.4c-0.2,0-0.3,0-0.3,0.3v5.9c0,0.4-0.4,0.8-0.8,0.8h-0.1
				c-0.4,0-0.8-0.4-0.8-0.8V7c0-0.4,0.4-0.8,0.8-0.8h4.6C87.6,6.2,90.4,8.3,90.4,11.8z M88.8,11.8c0-2.6-2.1-4-4.7-4h-3.4
				c-0.2,0-0.3,0.1-0.3,0.3v7.5c0,0.2,0,0.3,0.3,0.3h3.5C86.7,15.9,88.8,14.4,88.8,11.8z"/>
			<path class="st0" d="M103.7,23.6L103.7,23.6c0,0.5-0.4,0.9-0.8,0.9h-9c-0.4,0-0.8-0.4-0.8-0.8V7c0-0.4,0.3-0.8,0.8-0.8h8.5
				c0.4,0,0.8,0.4,0.8,0.8V7c0,0.4-0.4,0.8-0.8,0.8h-7.4c-0.3,0-0.3,0.1-0.3,0.3V14c0,0.3,0.1,0.3,0.3,0.3h6.5
				c0.4,0,0.8,0.4,0.8,0.8v0.1c0,0.4-0.4,0.8-0.8,0.8h-6.4c-0.3,0-0.3,0-0.3,0.3v6.4c0,0.2,0.1,0.3,0.3,0.3h7.9
				C103.4,22.9,103.7,23.2,103.7,23.6z"/>
			<path class="st0" d="M120,7v16.7c0,0.3-0.2,0.6-0.5,0.7c-0.4,0.2-0.8,0.1-1-0.3c0,0-9-13.1-9.4-13.6c-0.4-0.6-0.6-0.5-0.6,0.3
				c0,0.8,0,12.9,0,12.9c0,0.4-0.4,0.8-0.8,0.8h-0.1c-0.4,0-0.8-0.4-0.8-0.8V7c0-0.3,0.2-0.6,0.5-0.7c0.4-0.2,0.8-0.1,1,0.3
				c0,0,9,13.1,9.5,13.8c0.4,0.7,0.6,0.4,0.6-0.2s0-13.1,0-13.1c0-0.4,0.4-0.8,0.8-0.8h0.1C119.7,6.2,120,6.5,120,7z"/>
			<path class="st0" d="M134.2,19.2c0,3.2-2.2,5.6-5.4,5.6c-2.1,0-3.9-1-4.9-2.6c-0.7-1.2,0.7-2.1,1.6-1c0.8,1.1,1.7,2,3.3,2
				c2.4,0,3.9-1.7,3.9-4.1c0-2.2-1.5-3.3-4.2-3.9c-2.7-0.6-4.4-1.8-4.4-4.8c0-2.6,1.9-4.7,4.7-4.7c1.8,0,3.3,0.8,4.2,2.3
				c0.6,1-0.8,1.7-1.4,0.9c-0.9-1-1.6-1.7-2.8-1.7c-1.9,0-3.2,1.5-3.2,3.2c0,1.5,0.9,2.7,3.1,3.3C131.6,14.6,134.1,15.7,134.2,19.2z
				"/>
			<path class="st0" d="M148.1,23.6L148.1,23.6c0,0.5-0.4,0.9-0.8,0.9h-9c-0.4,0-0.8-0.4-0.8-0.8V7c0-0.4,0.3-0.8,0.8-0.8h8.5
				c0.4,0,0.8,0.4,0.8,0.8V7c0,0.4-0.4,0.8-0.8,0.8h-7.4c-0.3,0-0.3,0.1-0.3,0.3V14c0,0.3,0.1,0.3,0.3,0.3h6.5
				c0.4,0,0.8,0.4,0.8,0.8v0.1c0,0.4-0.4,0.8-0.8,0.8h-6.4c-0.3,0-0.3,0-0.3,0.3v6.4c0,0.2,0.1,0.3,0.3,0.3h7.9
				C147.8,22.9,148.1,23.2,148.1,23.6z"/>
			<path class="st0" d="M165.9,23.4c0.2,0.4,0,0.9-0.4,1l0,0c-0.4,0.2-0.9,0-1-0.4c0,0-1.8-4.4-1.9-4.6c-0.1-0.2-0.3-0.3-0.6-0.3
				c-1.7,0-7.2,0-7.5,0c-0.3,0-0.5,0.1-0.6,0.4c-0.1,0.3-1.9,4.5-1.9,4.5c-0.2,0.4-0.6,0.6-1,0.4l-0.1,0c-0.4-0.2-0.6-0.6-0.4-1
				l7-16.7c0.1-0.3,0.5-0.5,0.8-0.5c0.3,0,0.6,0.2,0.8,0.5L165.9,23.4z M155.1,17.4c1.4,0,5.8,0,6.2,0c0.4,0,0.4-0.1,0.3-0.4
				c-0.1-0.3-2.4-5.9-3.1-7.5c-0.2-0.4-0.3-0.4-0.5,0c-0.8,1.7-3.1,7.4-3.1,7.6C154.7,17.3,154.8,17.4,155.1,17.4z"/>
			<circle class="st0" cx="170.3" cy="23.6" r="1"/>
			<g>
				<path class="st0" d="M57.8,19.3C57.2,18,57,16.7,57,15.3c0-5.3,4.3-9.6,9.6-9.6s9.6,4.3,9.6,9.6s-4.3,9.6-9.6,9.6
					c-1.6,0-3.2-0.4-4.6-1.2c-0.4-0.2-0.6-0.7-0.3-1.1c0.2-0.4,0.7-0.6,1.1-0.3c1.2,0.6,2.5,1,3.8,1c4.4,0,7.9-3.5,7.9-7.9
					s-3.5-7.9-7.9-7.9s-7.9,3.5-7.9,7.9c0,1.1,0.2,2.2,0.7,3.3"/>
			</g>
			<path class="st0" d="M195.6,16.7c2.5-0.5,4-2.7,4-5.2c0-2.9-2-4.8-5.1-4.8h-4.9c-0.2,0-0.5,0-0.7,0.2c-0.2,0.2-0.2,0.5-0.3,1.1
				v15.7c0.1,0,0.1,0.1,0.2,0.4c0.1,0.2,0.3,0.3,0.6,0.3s0.5-0.1,0.6-0.3c0.1-0.2,0.2-0.4,0.2-0.7l-0.1-6.6h3.6l4.3,7.1
				c0.1,0.2,0.4,0.6,0.8,0.6c0.1,0,0.3,0,0.4-0.1c0.2-0.1,0.4-0.4,0.4-0.6c0-0.2-0.1-0.4-0.2-0.7L195.6,16.7z M198,11.5
				c0,2.2-1.4,3.8-3.8,3.8h-4l0.1-7.1h4C196.7,8.2,198,9.4,198,11.5z"/>
		</g>
	</g>
	<path class="st0" d="M32.1,14.5c-1.7,0-3.2-1.4-4-2.1c-0.7,0.7-2.3,2.1-4,2.1c-1.7,0-3.2-1.4-4-2.1c-0.7,0.7-2.3,2.1-4,2.1
		c-1.7,0-3.2-1.4-4-2.1c-0.7,0.7-2.3,2.1-4,2.1c-1.7,0-3.2-1.4-4-2.1c-0.7,0.7-2.3,2.1-4,2.1C0.2,14.5,0,14.2,0,14s0.2-0.5,0.5-0.5
		c1.7,0,3.6-2.2,3.6-2.2c0.1-0.1,0.2-0.2,0.4-0.2l0,0c0.1,0,0.3,0.1,0.4,0.2c0,0,1.9,2.2,3.6,2.2c1.4,0,3.1-1.7,3.6-2.3
		c0.1-0.1,0.2-0.3,0.4-0.3h0c0.1,0,0.3,0.2,0.4,0.3c0,0,1.9,2.3,3.6,2.3c1.4,0,3.1-1.7,3.6-2.3c0.1-0.1,0.2-0.3,0.4-0.3h0
		c0.1,0,0.3,0.2,0.4,0.3c0,0,1.9,2.3,3.6,2.3c1.4,0,3.1-1.7,3.6-2.3c0.1-0.1,0.2-0.3,0.4-0.3h0c0.1,0,0.3,0.2,0.4,0.3
		c0,0,1.9,2.3,3.6,2.3c1.7,0,3.6-2.2,3.6-2.2c0.2-0.2,0.5-0.2,0.7,0c0.2,0.2,0.2,0.5,0.1,0.7C36.4,12,34.3,14.5,32.1,14.5z"/>
	<path class="st0" d="M39,28.5c-1.7,0-3.2-1.4-4-2.1c-0.7,0.7-2.3,2.1-4,2.1c-1.7,0-3.2-1.4-4-2.1c-0.7,0.7-2.3,2.1-4,2.1
		c-0.3,0-0.5-0.2-0.5-0.5s0.2-0.5,0.5-0.5c1.4,0,3.1-1.8,3.6-2.4c0.1-0.1,0.2-0.3,0.4-0.3h0c0.1,0,0.3,0.2,0.4,0.3
		c0,0,1.9,2.3,3.6,2.3c1.7,0,3.6-2.1,3.6-2.2c0.2-0.2,0.6-0.2,0.8,0c0,0,1.9,2.2,3.6,2.2c1.7,0,3.6-2.2,3.6-2.2
		c0.2-0.2,0.5-0.2,0.7-0.1c0.2,0.2,0.2,0.5,0.1,0.7C43.2,26.1,41.1,28.5,39,28.5z"/>
	<path class="st0" d="M18,3.6c-1.7,0-3.2-1.4-4-2.1c-0.7,0.7-2.3,2.1-4,2.1c-1.7,0-3.2-1.4-4-2.1c-0.7,0.7-2.3,2.1-4,2.1
		c-0.3,0-0.5-0.2-0.5-0.5s0.2-0.5,0.5-0.5c1.4,0,3.1-1.7,3.6-2.3C5.9,0.2,6,0,6.2,0h0c0.1,0,0.3,0.2,0.4,0.3c0,0,1.9,2.3,3.6,2.3
		s3.6-2.2,3.6-2.2c0.2-0.2,0.6-0.2,0.8,0c0,0,1.9,2.2,3.6,2.2c1.7,0,3.6-2.2,3.6-2.2c0.2-0.2,0.5-0.2,0.7-0.1
		c0.2,0.2,0.2,0.5,0.1,0.7C22.3,1.1,20.2,3.6,18,3.6z"/>
	<path class="st0" d="M40.1,14.3c-2.2,0-4.2-2.5-4.3-2.6c-0.2-0.2-0.1-0.5,0.1-0.7c0.2-0.2,0.5-0.1,0.7,0.1c0,0,1.9,2.2,3.6,2.2
		c0.3,0,0.5,0.2,0.5,0.5C40.6,14.1,40.4,14.3,40.1,14.3z"/>
	<path class="st0" d="M14.7,23.8c1.2,0.8,2.2,1.1,3.6,1.3c5.4,0.9,10.5-2.7,11.4-8.1S26.9,6.6,21.5,5.7s-10.5,2.7-11.4,8.1
		c-0.3,1.6-0.1,3.3,0.4,4.9c0.2,0.4,0.6,0.7,1.1,0.5c0.4-0.2,0.7-0.6,0.5-1.1c-0.4-1.3-0.6-2.7-0.3-4c0.7-4.4,5-7.4,9.4-6.7
		s7.4,5,6.7,9.4c-0.7,4.4-5,7.4-9.4,6.7c-1.2-0.2-2.2-0.6-3.2-1.3l-1.2-0.8L8,28.6c0,0-0.2,0.7,0.3,1.2c0.5,0.4,1.2,0.2,1.2,0.2
		L14.7,23.8z"/>
</g>
</svg>
