<?xml version="1.0" encoding="utf-8"?>
<svg version="1.1" id="Layer_1" xmlns="http://www.w3.org/2000/svg" xmlns:xlink="http://www.w3.org/1999/xlink" x="0px" y="0px"
	 viewBox="-155.8 379.1 233.5 36.3" style="enable-background:new -155.8 379.1 233.5 36.3;" xml:space="preserve">
<style type="text/css">
	.st0{fill:#0086FF;}
</style>
<g>
	<g>
		<path class="st0" d="M37.5,395.4c0,3.4-2.7,5.6-6.1,5.6H28c-0.2,0-0.3,0-0.3,0.3v5.7c0,0.4-0.3,0.8-0.8,0.8h-0.1
			c-0.4,0-0.8-0.3-0.8-0.8v-16.2c0-0.4,0.3-0.8,0.8-0.8h4.5C34.7,390,37.5,392,37.5,395.4z M35.9,395.4c0-2.5-2-3.9-4.6-3.9H28
			c-0.2,0-0.3,0.1-0.3,0.3v7.3c0,0.2,0,0.3,0.3,0.3h3.4C33.9,399.4,35.9,398,35.9,395.4z"/>
		<path class="st0" d="M71.7,398.9c0,5.1-3.9,9.2-9,9.2s-9.2-4.1-9.2-9.2c0-5.1,4.1-9.2,9.2-9.2C67.8,389.7,71.7,393.8,71.7,398.9z
			 M70.1,398.9c0-4.2-3.2-7.7-7.4-7.7s-7.6,3.5-7.6,7.7c0,4.2,3.4,7.7,7.6,7.7C67,406.6,70.1,403.1,70.1,398.9z"/>
		<path class="st0" d="M-58.1,395.1c0,3.5-2.8,5.8-6.3,5.8h-3.4c-0.2,0-0.3,0.1-0.3,0.3v5.9c0,0.4-0.4,0.8-0.8,0.8H-69
			c-0.4,0-0.8-0.4-0.8-0.8v-16.8c0-0.4,0.4-0.8,0.8-0.8h4.6C-60.9,389.5-58.1,391.6-58.1,395.1z M-59.7,395.1c0-2.6-2.1-4-4.7-4
			h-3.4c-0.2,0-0.3,0.1-0.3,0.3v7.5c0,0.2,0,0.3,0.3,0.3h3.5C-61.8,399.2-59.7,397.7-59.7,395.1z"/>
		<path class="st0" d="M-44.8,406.9L-44.8,406.9c0,0.5-0.4,0.9-0.8,0.9h-9c-0.4,0-0.8-0.4-0.8-0.8v-16.7c0-0.4,0.3-0.8,0.8-0.8h8.6
			c0.4,0,0.8,0.4,0.8,0.8v0.1c0,0.4-0.4,0.8-0.8,0.8h-7.4c-0.3,0-0.3,0.1-0.3,0.3v5.9c0,0.3,0.1,0.3,0.3,0.3h6.5
			c0.4,0,0.8,0.4,0.8,0.8v0.1c0,0.4-0.4,0.8-0.8,0.8h-6.4c-0.3,0-0.3,0.1-0.3,0.3v6.2c0,0.2,0.1,0.3,0.3,0.3h7.9
			C-45.1,406.2-44.8,406.5-44.8,406.9z"/>
		<path class="st0" d="M-28.4,390.3V407c0,0.3-0.2,0.6-0.5,0.7c-0.4,0.2-0.8,0.1-1-0.3c0,0-9-13.1-9.4-13.6
			c-0.4-0.6-0.6-0.5-0.6,0.3s0,12.9,0,12.9c0,0.4-0.4,0.8-0.8,0.8h-0.1c-0.4,0-0.8-0.4-0.8-0.8v-16.7c0-0.3,0.2-0.6,0.5-0.7
			c0.4-0.2,0.8-0.1,1,0.3c0,0,9,13.1,9.5,13.8c0.4,0.7,0.6,0.4,0.6-0.2s0-13.1,0-13.1c0-0.4,0.4-0.8,0.8-0.8h0.1
			C-28.8,389.5-28.4,389.8-28.4,390.3z"/>
		<path class="st0" d="M-14.3,402.6c0,3.2-2.2,5.6-5.4,5.6c-2.1,0-3.9-1-4.9-2.6c-0.7-1.2,0.7-2.1,1.6-1c0.8,1.1,1.7,2,3.3,2
			c2.4,0,3.9-1.7,3.9-4.1c0-2.2-1.5-3.3-4.2-3.9s-4.4-1.8-4.4-4.8c0-2.6,1.9-4.7,4.7-4.7c1.8,0,3.3,0.8,4.2,2.3
			c0.6,1-0.8,1.7-1.4,0.9c-0.9-1-1.6-1.7-2.8-1.7c-1.9,0-3.2,1.5-3.2,3.2c0,1.5,0.9,2.7,3.1,3.3C-16.8,397.9-14.4,399-14.3,402.6z"
			/>
		<path class="st0" d="M-0.4,406.9L-0.4,406.9c0,0.5-0.4,0.9-0.8,0.9h-9c-0.4,0-0.8-0.4-0.8-0.8v-16.7c0-0.4,0.3-0.8,0.8-0.8h8.6
			c0.4,0,0.8,0.4,0.8,0.8v0.1c0,0.4-0.4,0.8-0.8,0.8H-9c-0.3,0-0.3,0.1-0.3,0.3v5.9c0,0.3,0.1,0.3,0.3,0.3h6.5
			c0.4,0,0.8,0.4,0.8,0.8v0.1c0,0.4-0.4,0.8-0.8,0.8H-9c-0.3,0-0.3,0.1-0.3,0.3v6.2c0,0.2,0.1,0.3,0.3,0.3h7.9
			C-0.7,406.2-0.4,406.5-0.4,406.9z"/>
		<path class="st0" d="M17.4,406.7c0.2,0.4,0,0.9-0.4,1l0,0c-0.4,0.2-0.9,0-1-0.4c0,0-1.8-4.4-1.9-4.6c-0.1-0.2-0.3-0.3-0.6-0.3
			c-1.7,0-7.2,0-7.5,0s-0.5,0.1-0.6,0.4c-0.1,0.3-1.9,4.5-1.9,4.5c-0.2,0.4-0.6,0.6-1,0.4H2.4c-0.4-0.2-0.6-0.6-0.4-1L9,390
			c0.1-0.3,0.5-0.5,0.8-0.5s0.6,0.2,0.8,0.5L17.4,406.7z M6.6,400.7c1.4,0,5.8,0,6.2,0s0.4-0.1,0.3-0.4c-0.1-0.3-2.4-5.9-3.1-7.6
			c-0.2-0.4-0.3-0.4-0.5,0c-0.8,1.7-3.1,7.5-3.1,7.6C6.2,400.6,6.3,400.7,6.6,400.7z"/>
		<circle class="st0" cx="21.8" cy="406.9" r="1"/>
		<g>
			<path class="st0" d="M-90.7,402.6c-0.6-1.2-0.8-2.6-0.8-3.9c0-5.3,4.3-9.6,9.6-9.6s9.6,4.3,9.6,9.6c0,5.3-4.3,9.6-9.6,9.6
				c-1.6,0-3.2-0.4-4.6-1.2c-0.4-0.2-0.6-0.7-0.3-1.1c0.2-0.4,0.7-0.6,1.1-0.3c1.2,0.6,2.5,1,3.8,1c4.4,0,7.9-3.5,7.9-7.9
				c0-4.4-3.5-7.9-7.9-7.9s-7.9,3.5-7.9,7.9c0,1.1,0.2,2.2,0.7,3.3"/>
		</g>
		<path class="st0" d="M47.1,400c2.5-0.5,4-2.7,4-5.2c0-2.9-2-4.8-5.1-4.8h-4.9c-0.2,0-0.5,0-0.7,0.2c-0.2,0.2-0.2,0.5-0.3,1.1V407
			c0.1,0,0.1,0.1,0.2,0.4c0.1,0.2,0.4,0.3,0.6,0.3s0.5-0.1,0.6-0.3c0.1-0.2,0.2-0.4,0.2-0.7l-0.1-6.6h3.6l4.4,7.1
			c0.1,0.2,0.4,0.6,0.8,0.6c0.1,0,0.3,0,0.4-0.1c0.2-0.1,0.4-0.4,0.4-0.6s-0.1-0.4-0.2-0.7L47.1,400z M49.5,394.8
			c0,2.2-1.4,3.8-3.8,3.8h-4l0.1-7.1h4C48.2,391.5,49.5,392.7,49.5,394.8z"/>
	</g>
</g>
<path class="st0" d="M-115.8,399.6c-2,0-4-1.7-4.8-2.6c-0.9,0.9-2.8,2.6-4.8,2.6s-4-1.7-4.8-2.6c-0.9,0.9-2.8,2.6-4.8,2.6
	s-3.9-1.7-4.8-2.6c-0.9,0.9-2.8,2.6-4.8,2.6s-3.9-1.7-4.8-2.6c-0.9,0.9-2.8,2.6-4.8,2.6c-0.3,0-0.6-0.3-0.6-0.6
	c0-0.3,0.3-0.6,0.6-0.6c2.1,0,4.3-2.7,4.3-2.7c0.1-0.1,0.3-0.2,0.5-0.2l0,0c0.2,0,0.3,0.1,0.5,0.2c0,0,2.3,2.7,4.3,2.7
	c1.7,0,3.7-2.1,4.3-2.8c0.1-0.1,0.3-0.4,0.5-0.4l0,0c0.2,0,0.3,0.2,0.5,0.4c0,0,2.3,2.8,4.3,2.8c1.7,0,3.7-2,4.3-2.8
	c0.1-0.1,0.3-0.3,0.5-0.3l0,0c0.2,0,0.3,0.2,0.5,0.4c0,0,2.3,2.8,4.3,2.8c1.7,0,3.7-2,4.3-2.8c0.1-0.1,0.3-0.3,0.5-0.3l0,0
	c0.2,0,0.3,0.2,0.5,0.4c0,0,2.3,2.8,4.4,2.8c2.1,0,4.3-2.6,4.4-2.6c0.2-0.3,0.6-0.3,0.8-0.1c0.3,0.2,0.3,0.6,0.1,0.9
	C-110.6,396.6-113.1,399.6-115.8,399.6z"/>
<path class="st0" d="M-109.6,411c-0.7-0.6-1.2-1.2-1.2-1.2c-0.2-0.3-0.7-0.3-0.9,0c0,0-2.3,2.6-4.3,2.6s-4.3-2.8-4.3-2.8
	c-0.1-0.1-0.3-0.4-0.5-0.4l0,0c-0.2,0-0.3,0.3-0.5,0.4c-0.6,0.7-2.6,2.9-4.3,2.9c-0.3,0-0.6,0.3-0.6,0.6s0.3,0.6,0.6,0.6
	c2,0,3.9-1.7,4.8-2.6c0.9,0.9,2.8,2.6,4.8,2.6s3.9-1.7,4.8-2.6c0.2,0.2,0.5,0.5,0.9,0.8c0.2-0.1,0.5-0.1,0.7-0.2
	C-109.7,411.5-109.6,411.2-109.6,411z"/>
<path class="st0" d="M-134.9,383.4c-2,0-3.9-1.7-4.8-2.6c-0.9,0.9-2.8,2.6-4.8,2.6s-3.9-1.7-4.8-2.6c-0.9,0.9-2.8,2.6-4.8,2.6
	c-0.3,0-0.6-0.3-0.6-0.6c0-0.3,0.3-0.6,0.6-0.6c1.7,0,3.7-2.1,4.3-2.8c0.1-0.1,0.3-0.3,0.5-0.3l0,0c0.2,0,0.3,0.2,0.5,0.3
	c0,0,2.3,2.8,4.3,2.8s4.3-2.6,4.3-2.7c0.2-0.3,0.7-0.3,0.9,0c0,0,2.3,2.7,4.3,2.7c2.1,0,4.3-2.7,4.3-2.7c0.2-0.3,0.6-0.3,0.8-0.1
	c0.3,0.2,0.3,0.6,0.1,0.8C-129.8,380.4-132.3,383.4-134.9,383.4z"/>
<path class="st0" d="M-106,399.4c-2.7,0-5.2-3-5.3-3.1c-0.2-0.3-0.2-0.6,0.1-0.8c0.3-0.2,0.6-0.2,0.8,0.1c0,0,2.3,2.7,4.3,2.7
	c0.3,0,0.6,0.3,0.6,0.6C-105.5,399.1-105.7,399.4-106,399.4z"/>
<path class="st0" d="M-136,407.9c1.4,1,2.6,1.4,4.3,1.6c6.5,1.1,12.7-3.3,13.8-9.8s-3.2-12.7-9.7-13.8c-6.5-1.1-12.7,3.3-13.8,9.8
	c-0.3,2-0.2,4,0.5,5.9c0.2,0.5,0.8,0.8,1.3,0.6c0.5-0.2,0.8-0.8,0.6-1.3c-0.5-1.6-0.7-3.3-0.4-4.9c0.9-5.4,6-9,11.4-8.1
	c5.4,0.9,9,6,8.1,11.4c-0.9,5.4-6,9-11.4,8.1c-1.4-0.2-2.7-0.8-3.9-1.5l-1.4-1l-7.5,8.8c0,0-0.2,0.9,0.4,1.4s1.4,0.2,1.4,0.2
	L-136,407.9z"/>
<path class="st0" d="M-105.9,413.7c-2.6,0.3-5.4-2.6-5.6-2.7c-0.2-0.2-0.2-0.6,0-0.9c0.2-0.2,0.6-0.2,0.8,0c0,0,2.5,2.5,4.6,2.3
	c0.3,0,0.6,0.2,0.7,0.6S-105.5,413.7-105.9,413.7z"/>
</svg>
